<svg xmlns="http://www.w3.org/2000/svg" xmlns:xlink="http://www.w3.org/1999/xlink" width="91.479" height="100.193" viewBox="0 0 91.479 100.193">
  <defs>
    <clipPath id="clip-path">
      <rect width="91.479" height="100.193" fill="none"/>
    </clipPath>
  </defs>
  <g id="ic_basket" clip-path="url(#clip-path)">
    <g id="Group_2239" data-name="Group 2239" transform="translate(-9421.521 -7529)">
      <g id="Group_2238" data-name="Group 2238" transform="translate(9321 7163)">
        <g id="_474240-PGDWGB-803" data-name="474240-PGDWGB-803" transform="translate(-51.617 96.152)">
          <ellipse id="Ellipse_16" data-name="Ellipse 16" cx="37.158" cy="1.895" rx="37.158" ry="1.895" transform="translate(165.2 366.252)" fill="#586376" opacity="0.19"/>
          <path id="Path_4166" data-name="Path 4166" d="M235.912,312.456l-61.884-5.962a3.528,3.528,0,0,0-1.2.092l-7.21-6.008a1.974,1.974,0,0,0-1.34-.462h-4.807a4.2,4.2,0,0,0-.832-.971,3.971,3.971,0,1,0,.508,5.592,2.806,2.806,0,0,0,.324-.462h3.374a2.347,2.347,0,0,1,1.34.462l5.685,4.76a4.277,4.277,0,0,0-.092,2.034l5.315,30.734a4.09,4.09,0,0,0,3.928,3.466h4.9l-4.853,6.008a2.085,2.085,0,0,0,1.849,3.42h48.712a1.525,1.525,0,1,0,0-3.05H184.38c-.878,0-1.479-.555-.693-1.664l3.512-4.853H227.87a4.023,4.023,0,0,0,3.79-2.912l7.672-24.726A4.213,4.213,0,0,0,235.912,312.456ZM176.2,319.111l-1.294-7.487,1.294.139Zm6.1,21.445h-2.357l-.693-3.882v-2.865h3.05Zm0-9.8h-3.05v-7.164h3.05Zm0-10.168h-3.05v-8.5l3.05.277Zm6.1,19.966h-3.05v-6.748h3.05Zm0-9.8h-3.05v-7.164h3.05Zm0-10.168h-3.05v-7.9l3.05.277Zm6.1,19.966h-3.05v-6.748h3.05Zm0-9.8h-3.05v-7.164h3.05Zm0-10.168h-3.05v-7.348l3.05.277Zm6.1,19.966h-3.05v-6.748h3.05Zm0-9.8h-3.05v-7.164h3.05Zm0-10.168h-3.05v-6.748l3.05.277Zm6.1,19.966h-3.05v-6.748h3.05Zm0-9.8h-3.05v-7.164h3.05Zm0-10.168h-3.05v-6.147l3.05.277Zm6.1,19.966h-3.05v-6.748h3.05Zm0-9.8h-3.05v-7.164h3.05Zm0-10.168h-3.05v-5.546l3.05.277Zm6.1,19.966h-3.05v-6.748h3.05Zm0-9.8h-3.05v-7.164h3.05Zm0-10.168h-3.05V315.6l3.05.277Zm6.1,19.966h-3.05v-6.748H225Zm0-9.8h-3.05v-7.164H225Zm0-10.168h-3.05V316.2l3.05.277Zm3.05,16.684v-3.42h1.063Zm2.034-6.517H228.1v-7.164h4.206Zm3.143-10.168h-5.176V316.8l6.147.6Z" transform="translate(0 0)" fill="#586376"/>
          <path id="Path_4167" data-name="Path 4167" d="M221.208,423.5a6.008,6.008,0,1,0,6.008,6.008A6,6,0,0,0,221.208,423.5Zm0,8.273a2.265,2.265,0,1,1,2.265-2.265A2.268,2.268,0,0,1,221.208,431.773Z" transform="translate(-33.917 -67.37)" fill="#586376"/>
          <path id="Path_4168" data-name="Path 4168" d="M293.908,423.5a6.008,6.008,0,1,0,6.008,6.008A6,6,0,0,0,293.908,423.5Zm0,8.273a2.265,2.265,0,1,1,2.265-2.265A2.268,2.268,0,0,1,293.908,431.773Z" transform="translate(-73.017 -67.37)" fill="#586376"/>
        </g>
      </g>
    </g>
  </g>
</svg>
