<svg xmlns="http://www.w3.org/2000/svg" width="93.835" height="66.856" viewBox="0 0 93.835 66.856">
  <g id="ic_emptyfavorites" transform="translate(-6740.824 -6693.337)">
    <g id="Group_2224" data-name="Group 2224" transform="translate(6637 6294)">
      <g id="_474240-PGDWGB-803" data-name="474240-PGDWGB-803" transform="translate(-61.376 96.152)">
        <ellipse id="Ellipse_16" data-name="Ellipse 16" cx="46.918" cy="1.895" rx="46.918" ry="1.895" transform="translate(165.2 366.252)" fill="#586376" opacity="0.19"/>
      </g>
    </g>
    <g id="open-folder" transform="translate(6753.917 6691.337)">
      <path id="Path_4171" data-name="Path 4171" d="M62.1,19.743V10.872H31.051L26.615,2H8.872L4.436,10.872H0v42.14L13.307,19.743Z" fill="#586376"/>
      <path id="Path_4172" data-name="Path 4172" d="M14.695,7,.5,42.487H57.278L68.368,7Z" transform="translate(1.718 17.179)" fill="#586376"/>
      <path id="like_3_" data-name="like (3)" d="M10.243,2.845A2.908,2.908,0,0,0,7.467,0,2.76,2.76,0,0,0,5.1,1.363,2.66,2.66,0,0,0,2.794,0,2.908,2.908,0,0,0,.017,2.844,2.933,2.933,0,0,0,.1,3.925,4.636,4.636,0,0,0,1.525,6.3L5.1,9.54,8.735,6.3a4.637,4.637,0,0,0,1.421-2.371A2.94,2.94,0,0,0,10.243,2.845Z" transform="translate(39.095 40.386) rotate(39)" fill="#fff"/>
      <path id="like_3_2" data-name="like (3)" d="M7.533,2.092A2.139,2.139,0,0,0,5.491,0,2.03,2.03,0,0,0,3.752,1a1.956,1.956,0,0,0-1.7-1A2.139,2.139,0,0,0,.013,2.092a2.157,2.157,0,0,0,.064.795A3.41,3.41,0,0,0,1.121,4.63L3.75,7.016,6.424,4.63A3.41,3.41,0,0,0,7.469,2.887,2.162,2.162,0,0,0,7.533,2.092Z" transform="matrix(0.848, -0.53, 0.53, 0.848, 26.319, 34.436)" fill="#fff"/>
    </g>
  </g>
</svg>
