<svg xmlns="http://www.w3.org/2000/svg" xmlns:xlink="http://www.w3.org/1999/xlink" width="93.836" height="83.193" viewBox="0 0 93.836 83.193">
  <defs>
    <clipPath id="clip-path">
      <rect width="93.836" height="83.193" fill="none"/>
    </clipPath>
  </defs>
  <g id="ic_location2" clip-path="url(#clip-path)">
    <g id="Group_2237" data-name="Group 2237" transform="translate(-140.823 -301)">
      <g id="Group_2225" data-name="Group 2225">
        <g id="Group_2157" data-name="Group 2157" transform="translate(37 -82)">
          <g id="_474240-PGDWGB-803" data-name="474240-PGDWGB-803" transform="translate(-61.376 96.152)">
            <ellipse id="Ellipse_16" data-name="Ellipse 16" cx="46.918" cy="1.895" rx="46.918" ry="1.895" transform="translate(165.2 366.252)" fill="#586376" opacity="0.19"/>
          </g>
        </g>
        <g id="pin_8_" data-name="pin (8)" transform="translate(109.231 310.449)">
          <g id="Group_2177" data-name="Group 2177" transform="translate(49.299 0)">
            <path id="Path_4229" data-name="Path 4229" d="M77.081.018a28.819,28.819,0,0,0-27.26,34.264h0s.044.311.192.9a28.879,28.879,0,0,0,1.94,5.716c2.887,6.841,9.565,18.287,24.55,30.74a2.5,2.5,0,0,0,3.2,0C94.687,59.2,101.365,47.756,104.267,40.886a27.654,27.654,0,0,0,1.94-5.716c.133-.577.192-.9.192-.9h0A28.825,28.825,0,0,0,77.081.018ZM78.1,43.137A13.993,13.993,0,1,1,92.1,29.144,13.991,13.991,0,0,1,78.1,43.137Z" transform="translate(-49.299 0)" fill="#586376"/>
          </g>
        </g>
      </g>
    </g>
  </g>
</svg>
