<svg xmlns="http://www.w3.org/2000/svg" width="81.899" height="81.193" viewBox="0 0 81.899 81.193">
  <g id="ic_search" transform="translate(-143 -303)">
    <g id="Group_2157" data-name="Group 2157" transform="translate(37 -82)">
      <g id="_474240-PGDWGB-803" data-name="474240-PGDWGB-803" transform="translate(-51.617 96.152)">
        <ellipse id="Ellipse_16" data-name="Ellipse 16" cx="37.158" cy="1.895" rx="37.158" ry="1.895" transform="translate(165.2 366.252)" fill="#586376" opacity="0.19"/>
      </g>
    </g>
    <g id="search_14_" data-name="search (14)" transform="translate(142.511 302.999)">
      <path id="Path_4236" data-name="Path 4236" d="M76.52,66.352l-18.489-19.1c-1.326-1.37-2.983-1.919-3.7-1.218s-2.379.148-3.7-1.222l-.264-.274a27.693,27.693,0,1,0-4.776,4.924l.116.121c1.323,1.37,1.816,3.045,1.094,3.741s-.23,2.372,1.1,3.74L66.372,76.172a3.455,3.455,0,0,0,4.882.08l5.186-5.018A3.459,3.459,0,0,0,76.52,66.352ZM41.794,41.3a19.141,19.141,0,1,1,0-27.068A19.163,19.163,0,0,1,41.794,41.3Z" transform="translate(0)" fill="#586376"/>
    </g>
  </g>
</svg>
