<svg xmlns="http://www.w3.org/2000/svg" width="16.881" height="12.908" viewBox="0 0 16.881 12.908"><path d="M15.063,0H1.819A1.821,1.821,0,0,0,0,1.819v9.27a1.821,1.821,0,0,0,1.819,1.819H15.063a1.821,1.821,0,0,0,1.819-1.819V1.819A1.821,1.821,0,0,0,15.063,0ZM1.819.989H15.063a.831.831,0,0,1,.83.83V3.178H.989V1.819a.831.831,0,0,1,.83-.83Zm13.244,10.93H1.819a.831.831,0,0,1-.83-.83V4.168h14.9v6.922a.831.831,0,0,1-.83.83Zm0,0"/><path d="M277.866,200.832h-4.238a.495.495,0,1,0,0,.989h4.238a.495.495,0,0,0,0-.989Zm0,0" transform="translate(-264.127 -194.21)"/><path d="M324.479,281.168h-2.649a.495.495,0,0,0,0,.989h2.649a.495.495,0,0,0,0-.989Zm0,0" transform="translate(-310.741 -271.898)"/><path d="M83.828,200.977a.5.5,0,0,0-.35-.145H80.83a.5.5,0,0,0-.495.495v2.649a.5.5,0,0,0,.495.495h3.708a.5.5,0,0,0,.495-.495v-1.589a.5.5,0,0,0-.145-.35Zm.215,2.5H81.325v-1.66h1.949l.77.77Zm0,0" transform="translate(-77.687 -194.211)"/></svg>