<svg xmlns="http://www.w3.org/2000/svg" width="28.953" height="28.953" viewBox="0 0 28.953 28.953"><defs><style>.a{fill:#475993;}</style></defs><path class="a" d="M26.865,0H2.088A2.088,2.088,0,0,0,0,2.088V26.865a2.088,2.088,0,0,0,2.088,2.088H15.466v-11.2H11.706V13.374h3.761V10.148c0-3.74,2.283-5.776,5.62-5.776a30.927,30.927,0,0,1,3.372.172V8.454h-2.3c-1.815,0-2.167.863-2.167,2.129v2.791h4.34l-.565,4.383H19.99v11.2h6.875a2.088,2.088,0,0,0,2.088-2.088V2.088A2.088,2.088,0,0,0,26.865,0Zm0,0" transform="translate(0 0)"/></svg>