<svg xmlns="http://www.w3.org/2000/svg" width="14.827" height="15.586" viewBox="0 0 14.827 15.586"><g transform="translate(-12.479 0)"><g transform="translate(12.479 0)"><path d="M27.306,2.831H23.712A1.81,1.81,0,0,0,21.249.28a4.088,4.088,0,0,0-1.2,1.63c-.056.106-.11.209-.16.309-.051-.1-.1-.2-.16-.309a4.087,4.087,0,0,0-1.2-1.63,1.811,1.811,0,0,0-2.465,2.55H12.479V7.251h.534v8.335H26.772V7.251h.534V2.831ZM21.737,1.052a.891.891,0,0,1,.479-.139.915.915,0,0,1,.2.022A.9.9,0,0,1,22.7,2.568a6.213,6.213,0,0,1-2.091.262A6.221,6.221,0,0,1,21.737,1.052Zm-4.928.278a.894.894,0,0,1,.562-.4.915.915,0,0,1,.2-.022.891.891,0,0,1,.479.139A6.222,6.222,0,0,1,19.179,2.83c-.459-.007-.919-.033-1.3-.076a2.325,2.325,0,0,1-.8-.186.9.9,0,0,1-.278-1.238Zm1.235,13.343H13.926V7.251h4.118Zm0-8.335H13.392V3.744h4.652V6.338Zm2.783,8.335H18.958V3.744h1.869Zm5.031,0H21.74V7.251h4.118Zm.534-8.335H21.74V3.744h4.652Z" transform="translate(-12.479 0)"/></g></g></svg>