<svg xmlns="http://www.w3.org/2000/svg" width="27.509" height="27.51" viewBox="0 0 27.509 27.51"><defs><style>.a,.b{fill:#fff;}.b{stroke:#fff;stroke-width:0.5px;}</style></defs><g transform="translate(0.249 0.25)"><g transform="translate(0.001)"><path class="a" d="M9.387,32.846,8.1,32.262l-.36.19-.334.009.025-.347-.319-.19-.454.454.3.374.658.095.37.194L8,33.22H7.76l.01.369.8-.051.29-.309.309-.03v.568h.539v-.23h-.27Z" transform="translate(-2.97 -14.236)"/><path class="a" d="M18.449,11.918l.05-.314-.324-.05a1.645,1.645,0,0,0,.05.363Z" transform="translate(-8.106 -5.153)"/><path class="a" d="M35.14,13.943l-.07.184h-.345V14.3h.082l.012.088.211-.017.131-.082.034-.165.171-.015.066-.139-.155-.033Z" transform="translate(-15.485 -6.216)"/><path class="a" d="M33.862,14.416l-.013.174.25-.021.026-.175-.151-.117Z" transform="translate(-15.095 -6.367)"/><path class="b" d="M13.505,0A13.522,13.522,0,0,0,0,13.505c0,.407.021.809.057,1.208a13.469,13.469,0,0,0,.473,2.528q.181.628.421,1.231a13.467,13.467,0,0,0,1.161,2.271,13.617,13.617,0,0,0,3.166,3.463q.509.391,1.054.736.224.14.453.272A13.5,13.5,0,1,0,13.505,0Zm5.836,24.438-.3-.252.03-.219.094-.268.02-.275-.356-.01-.178-.225.294-.285.039-.214-.329-.094.019-.2.469-.071.714-.342.239-.439.749-.957-.171-.75.23-.4.687.02.464-.366.15-1.444.514-.654.09-.419-.469-.15-.31-.509-1.057-.01-.838-.319-.04-.6-.28-.489-.757-.011-.438-.687-.389-.189-.02.211-.708.042-.26-.361-.738-.15-.609.7-.958-.162-.07-1.079-.7-.12.28-.529-.081-.3-.918.613-.578-.07-.206-.451.126-.465.319-.587.733-.371h1.416l0,.432.509.237-.04-.737.367-.369.74-.486.051-.342.738-.768.785-.434L18.341,8l.531-.5.2.052.089.112.2-.224.05-.022-.221-.032-.223-.074V7.1l.119-.1h.263l.12.053.1.209.127-.019V7.227l.035.012.368-.058L20.154,7l.209.053v.2l-.2.135h0L20.2,7.6l.667.206a.055.055,0,0,1,0,.008l.152-.013.011-.289-.529-.24-.03-.139.438-.15.019-.419-.458-.279-.03-.708-.629.309h-.23l.06-.539-.855-.2-.355.267v.816l-.636.2-.255.531L17.264,7V6.322l-.6-.082-.3-.2-.12-.441,1.07-.626.524-.159.052.351.291-.015.023-.177.305-.043.006-.062-.131-.054-.03-.187.376-.032.226-.236.012-.017h0l.069-.071.788-.1.349.3-.914.487,1.164.274.15-.388h.509l.18-.34-.359-.089V3.988l-1.126-.5L19,3.579l-.439.229.03.559-.459-.07-.07-.31.439-.4-.8-.04-.229.07-.1.269.3.05-.059.3-.509.029-.08.2-.738.02a1.966,1.966,0,0,0-.05-.419l.578-.01.439-.429-.24-.119-.318.31-.529-.03-.319-.439h-.679l-.708.529h.648l.059.189L15,4.227l.718.02.109.259-.808-.029-.039-.2-.508-.11-.27-.15-1.2.01-.37.359-.249-.02-.279-.16-.828-.249H9.767l-.878.6L8.3,4.647l-.27.209.419.063v.167h-.9l-.35.249.449.38,1.227.01.17-.18h1.027l.369.329-.019.509.309.289-.259.184.059.673L9.608,8.657V9.714l.5.239v.95l.479.817.388.059.05-.279-.458-.709-.09-.688h.269l.114.708.663.967-.172.312.422.645L12.819,13v-.17l.419.06-.04.3.33.06.509.139.718.819.918.069.089.748-.628.439-.031.669-.089.408.908,1.139.069.389s.33.089.369.089.739.529.739.529v2.055l.249.07-.171.947.419.558-.078.94.554.973.616.538a12.35,12.35,0,0,1-10.814-.218l.327-.214.4-.176.4-.226-.148-.263-.217.043-.006-.488-.4.024-.05.764-.349.238-.409.057a12.193,12.193,0,0,1-1.329-.865l.454-.427.349-.8-.145-.588-.537-.46-.04-.878-.355-.608L5.5,19.664l-.13,1.1-.61-.045-.17-.1-.021-.438.322.066.272-.265-.579-.349H3.9l-.489.694h-.2v-.219l-.187.013c-.137-.216-.268-.434-.392-.658-.028-.05-.054-.1-.081-.15s-.045-.089-.069-.134l.052.016.044-.157H2.416q-.064-.126-.126-.255l.171-.015-.008-.972-.5.2c-.052-.131-.1-.265-.148-.4q-.2-.558-.339-1.14a12.373,12.373,0,0,1-.347-2.589l.083-.031.459-.383-.07-.694-.423-.443c.035-.371.089-.735.157-1.1l1,.762.354-.1-.234-.309-.673-.409.04-.608h.8L2.671,9.8l-.3-.4.18-.194.389.39.125-.165-.5-.568L2.038,8.8c.093-.226.19-.449.3-.668l.318.028,1.078-.719.179.225-.24.374v.374l.987.807.315-.164-.12-.539-.7-.658.927-.06V7.531l.449-.09L5.179,7.2l.014-.182.942.152.18-.152L5.044,6.484,3.355,6.4A12.393,12.393,0,1,1,19.341,24.438Z" transform="translate(-0.001)"/></g></g></svg>