<svg xmlns="http://www.w3.org/2000/svg" viewBox="0 0 24 24"><defs><style>.cls-1{fill:#f0f0f0;}.cls-2{fill:#0052b4;}.cls-3{fill:#d80027;}</style></defs><title>ic_english</title><g id="Слой_7" data-name="Слой 7"><circle id="Ellipse_23" data-name="Ellipse 23" class="cls-1" cx="12" cy="11.99" r="11.93"/><path id="Path_166" data-name="Path 166" class="cls-2" d="M2.53,19.26A11.89,11.89,0,0,1,.48,15.1h6.2Z"/><path id="Path_167" data-name="Path 167" class="cls-2" d="M23.52,15.1a11.89,11.89,0,0,1-2.06,4.15L17.31,15.1Z"/><path id="Path_168" data-name="Path 168" class="cls-2" d="M.48,8.88A11.89,11.89,0,0,1,2.53,4.73L6.68,8.88Z"/><path id="Path_169" data-name="Path 169" class="cls-2" d="M19.26,21.46a11.89,11.89,0,0,1-4.15,2.06v-6.2Z"/><path id="Path_170" data-name="Path 170" class="cls-2" d="M4.73,2.53A11.89,11.89,0,0,1,8.88.47v6.2Z"/><path id="Path_171" data-name="Path 171" class="cls-2" d="M8.88,23.51a11.89,11.89,0,0,1-4.15-2.06l4.15-4.15Z"/><path id="Path_172" data-name="Path 172" class="cls-2" d="M15.11.47a11.89,11.89,0,0,1,4.15,2.06L15.11,6.68Z"/><path id="Path_173" data-name="Path 173" class="cls-2" d="M17.31,8.88l4.15-4.15a11.89,11.89,0,0,1,2.06,4.15Z"/><path id="Path_174" data-name="Path 174" class="cls-3" d="M23.83,13.54H13.55V23.82a12,12,0,0,1-3.11,0V13.54H.17a12,12,0,0,1,0-3.11H10.45V.16a12,12,0,0,1,3.11,0V10.44H23.83a12,12,0,0,1,0,3.11Z"/><path id="Path_175" data-name="Path 175" class="cls-3" d="M15.11,8.88h0l5.32-5.32q.37.37.7.77L16.58,8.88Z"/><path id="Path_176" data-name="Path 176" class="cls-3" d="M8.88,8.88h0L3.56,3.56q.37-.37.77-.7L8.88,7.41Z"/><path id="Path_177" data-name="Path 177" class="cls-3" d="M8.88,15.11h0L3.56,20.43q-.37-.37-.7-.77l4.56-4.56Z"/><path id="Path_178" data-name="Path 178" class="cls-3" d="M15.11,15.11h0l5.32,5.32q-.37.37-.77.7l-4.56-4.56Z"/></g></svg>