<svg xmlns="http://www.w3.org/2000/svg" xmlns:xlink="http://www.w3.org/1999/xlink" width="28.953" height="28.953" viewBox="0 0 28.953 28.953"><defs><style>.a{fill:url(#a);}</style><linearGradient id="a" x1="-0.08" y1="1.3" x2="1.044" y2="-0.047" gradientUnits="objectBoundingBox"><stop offset="0" stop-color="#feb60b"/><stop offset="0.101" stop-color="#fdb10c"/><stop offset="0.222" stop-color="#fdaf0d"/><stop offset="0.565" stop-color="#ea4042"/><stop offset="0.813" stop-color="#a62aa1"/><stop offset="1" stop-color="#a129a9"/></linearGradient></defs><path class="a" d="M14.477,8.6a5.938,5.938,0,1,0,5.938,5.938A5.944,5.944,0,0,0,14.477,8.6Zm0,0a5.938,5.938,0,1,0,5.938,5.938A5.944,5.944,0,0,0,14.477,8.6ZM24.712,0H4.241A4.243,4.243,0,0,0,0,4.241V24.712a4.243,4.243,0,0,0,4.241,4.241H24.712a4.243,4.243,0,0,0,4.241-4.241V4.241A4.243,4.243,0,0,0,24.712,0ZM14.477,22.167a7.634,7.634,0,1,1,7.634-7.634A7.646,7.646,0,0,1,14.477,22.167ZM23.807,6.9a1.7,1.7,0,1,1,1.7-1.7A1.7,1.7,0,0,1,23.807,6.9ZM14.477,8.6a5.938,5.938,0,1,0,5.938,5.938A5.944,5.944,0,0,0,14.477,8.6Zm0,0a5.938,5.938,0,1,0,5.938,5.938A5.944,5.944,0,0,0,14.477,8.6Zm0,0a5.938,5.938,0,1,0,5.938,5.938A5.944,5.944,0,0,0,14.477,8.6Z"/></svg>