<svg xmlns="http://www.w3.org/2000/svg" width="27.183" height="25.744" viewBox="0 0 27.183 25.744"><defs><style>.a{fill:none;stroke:#2e2e2e;stroke-width:2px;}</style></defs><path class="a" d="M25.125,8.8C24.757,4.76,21.9,1.826,18.314,1.826a6.77,6.77,0,0,0-5.8,3.342A6.524,6.524,0,0,0,6.853,1.826C3.271,1.826.409,4.759.042,8.8a7.194,7.194,0,0,0,.214,2.651A11.372,11.372,0,0,0,3.74,17.268l8.768,7.956,8.918-7.956a11.374,11.374,0,0,0,3.484-5.815A7.21,7.21,0,0,0,25.125,8.8Z" transform="translate(1.009 -0.826)"/></svg>