<svg xmlns="http://www.w3.org/2000/svg" width="99.341" height="26.875" viewBox="0 0 99.341 26.875"><defs><style>.a{fill:#fff;}.b{fill:#003687;}</style></defs><path class="a" d="M449.464,54.337c-.35.217-.667.417-.984.617a9.027,9.027,0,0,1-6.707,1.635,8.456,8.456,0,0,1-6.807-7.741,12.159,12.159,0,0,1,8.342-12.8,7.622,7.622,0,0,1,8.142,1.5,3.415,3.415,0,0,1,.767,4.238,2.8,2.8,0,0,1-4.438.45,6.931,6.931,0,0,1-.534-.651c-.918-1.268-1.6-1.4-2.853-.384a8.321,8.321,0,0,0-3.02,5.573,3.864,3.864,0,0,0,.667,3.087,2.318,2.318,0,0,0,2.886.834,6.12,6.12,0,0,0,2.953-2.219c.918-1.251,1.952-2.052,3.6-1.318.184.083.6-.184.818-.384,1.418-1.3,3.02-1.7,4.321-.868a1.36,1.36,0,0,0,1.735.017,2.773,2.773,0,0,1,3.137.15,1.08,1.08,0,0,0,.934.017c1.535-.868,2.536-.751,3.921.45a.813.813,0,0,0,.684.05c.751-.317,1.5-.667,2.219-1.051a.94.94,0,0,0,.434-.651c-.133-1.552-.35-3.087-.467-4.638a7.087,7.087,0,0,1,.117-2.453c.451-1.6,1.785-2.286,3.537-2a2.822,2.822,0,0,1,2.386,2.97c-.117,2.069-.4,4.138-.6,6.207-.1,1.034-.083,1,.934.734a3.478,3.478,0,0,1,1.8-.033,2.673,2.673,0,0,0,1.8-.017,2.756,2.756,0,0,1,3.721,2.72c.05,1.285-.384,2.569-.417,3.871-.067,1.735.05,3.487.067,5.222a16.481,16.481,0,0,1-.033,2.4,3.175,3.175,0,0,1-2.469,2.419,3.057,3.057,0,0,1-2.986-2.069,8.593,8.593,0,0,1-.1-2.619c.05-.567.017-.784-.617-.951a5.022,5.022,0,0,0-3.387-.017c-.5.2-1.251-.267-1.885-.384a1.66,1.66,0,0,0-.9-.017,3.51,3.51,0,0,1-3.57-.05,1.017,1.017,0,0,0-.834.1,2.952,2.952,0,0,1-3.3-.2.958.958,0,0,0-.9.017,3.179,3.179,0,0,1-2.286.567,20.4,20.4,0,0,1-2.286-.217,4.217,4.217,0,0,0-2.72-.017,3.5,3.5,0,0,1-4.538-1.7C449.681,54.62,449.6,54.52,449.464,54.337Z" transform="translate(-383.579 -35.5)"/><path class="a" d="M127.339,46.92a22.067,22.067,0,0,1,1.218-4.121A11.218,11.218,0,0,1,140.5,36.66a5.312,5.312,0,0,1,4.2,3.821,2.765,2.765,0,0,1-1.635,3.287,2.934,2.934,0,0,1-3.5-.968c-.067-.083-.133-.184-.2-.267-.884-1.335-1.4-1.435-2.77-.567a7.867,7.867,0,0,0-3.17,7.274c.467,2.352,2.3,3.22,4.7,1.769.15-.083.217-.484.167-.7a2.947,2.947,0,0,1,2.686-3.9,24.152,24.152,0,0,1,3.437.317,1.757,1.757,0,0,0,.784-.1,2.247,2.247,0,0,1,2.369.184,1,1,0,0,0,1.268.033,2.5,2.5,0,0,1,3.287.3.927.927,0,0,0,.834.067c1.468-.968,2.886-1.218,4.388-.067.133.1.517.017.7-.1a2.987,2.987,0,0,1,3.42-.234,1.251,1.251,0,0,0,.951.017,3.092,3.092,0,0,1,3.771.434c.434.4.651.317,1.1,0a5.273,5.273,0,0,1,1.785-.818c.567-.15.7-.367.651-.918-.2-2.069-.4-4.154-.467-6.223a2.719,2.719,0,0,1,2.069-2.619,3.1,3.1,0,0,1,3.537,1.2,4.358,4.358,0,0,1,.45,2.9c-.284,2.653-.634,5.306-.717,7.958a14.236,14.236,0,0,0,.667,4.321c.634,2.169-.033,3.937-2,4.355a7.019,7.019,0,0,1-2.069-.284,1.987,1.987,0,0,0-.984-.033,3.677,3.677,0,0,1-3.5-.05,1.043,1.043,0,0,0-.834.033,2.913,2.913,0,0,1-3.354-.184.818.818,0,0,0-.784,0,3.065,3.065,0,0,1-2.586.567c-.6-.117-1.385.15-1.852-.133a2.836,2.836,0,0,0-3.087-.017,2.93,2.93,0,0,1-2.72-.217,1.067,1.067,0,0,0-.784-.05c-1.835.767-3.5.8-4.888-.868-.033-.033-.1-.033-.267-.083,0,.3-.017.567,0,.834a23.077,23.077,0,0,1,.117,3.554,3.276,3.276,0,0,1-3.4,2.669,3.651,3.651,0,0,1-2.736-3.12,20.711,20.711,0,0,1,.15-2.486c.017-.3.05-.584.1-1.034a8.143,8.143,0,0,0-.868.217c-5.005,2.152-9.827-.133-11.329-5.389a19.14,19.14,0,0,1-.367-2.035A23.289,23.289,0,0,1,127.339,46.92Z" transform="translate(-127.206 -36.309)"/><path class="b" d="M127.339,46.92a22.067,22.067,0,0,1,1.218-4.121A11.218,11.218,0,0,1,140.5,36.66a5.312,5.312,0,0,1,4.2,3.821,2.765,2.765,0,0,1-1.635,3.287,2.934,2.934,0,0,1-3.5-.968c-.067-.083-.133-.184-.2-.267-.884-1.335-1.4-1.435-2.77-.567a7.867,7.867,0,0,0-3.17,7.274c.467,2.352,2.3,3.22,4.7,1.769.15-.083.217-.484.167-.7a2.947,2.947,0,0,1,2.686-3.9,24.152,24.152,0,0,1,3.437.317,1.757,1.757,0,0,0,.784-.1,2.247,2.247,0,0,1,2.369.184,1,1,0,0,0,1.268.033,2.5,2.5,0,0,1,3.287.3.927.927,0,0,0,.834.067c1.468-.968,2.886-1.218,4.388-.067.133.1.517.017.7-.1a2.987,2.987,0,0,1,3.42-.234,1.251,1.251,0,0,0,.951.017,3.092,3.092,0,0,1,3.771.434c.434.4.651.317,1.1,0a5.273,5.273,0,0,1,1.785-.818c.567-.15.7-.367.651-.918-.2-2.069-.4-4.154-.467-6.223a2.719,2.719,0,0,1,2.069-2.619,3.1,3.1,0,0,1,3.537,1.2,4.358,4.358,0,0,1,.45,2.9c-.284,2.653-.634,5.306-.717,7.958a14.236,14.236,0,0,0,.667,4.321c.634,2.169-.033,3.937-2,4.355a7.019,7.019,0,0,1-2.069-.284,1.987,1.987,0,0,0-.984-.033,3.677,3.677,0,0,1-3.5-.05,1.043,1.043,0,0,0-.834.033,2.913,2.913,0,0,1-3.354-.184.818.818,0,0,0-.784,0,3.065,3.065,0,0,1-2.586.567c-.6-.117-1.385.15-1.852-.133a2.836,2.836,0,0,0-3.087-.017,2.93,2.93,0,0,1-2.72-.217,1.067,1.067,0,0,0-.784-.05c-1.835.767-3.5.8-4.888-.868-.033-.033-.1-.033-.267-.083,0,.3-.017.567,0,.834a23.077,23.077,0,0,1,.117,3.554,3.276,3.276,0,0,1-3.4,2.669,3.651,3.651,0,0,1-2.736-3.12,20.711,20.711,0,0,1,.15-2.486c.017-.3.05-.584.1-1.034a8.143,8.143,0,0,0-.868.217c-5.005,2.152-9.827-.133-11.329-5.389a19.14,19.14,0,0,1-.367-2.035A23.289,23.289,0,0,1,127.339,46.92Zm34.7,8.642c1.552,1.685,1.985,1.752,4,.751a.744.744,0,0,1,.651.05,2.905,2.905,0,0,0,3.5.083.817.817,0,0,1,1.084.067,2.129,2.129,0,0,0,2.569.117,2.163,2.163,0,0,0,1.1-2.252c-.05-.484-.234-.968-.334-1.452a16.276,16.276,0,0,1-.584-3.17c0-2.169.2-4.321.367-6.49.1-1.185.384-2.369.434-3.554a2.545,2.545,0,0,0-2.486-2.7,2.65,2.65,0,0,0-2.72,2.6,10.485,10.485,0,0,0,.067,1.251c.184,1.769.35,3.537.551,5.306.067.551-.083.734-.667.717a3.111,3.111,0,0,0-2.569,1.318c-.133.184-.267.367-.434.584-1.168-2.1-2.4-2.386-4.438-1.151a.869.869,0,0,1-.734-.15,2.291,2.291,0,0,0-3.52.551,2.98,2.98,0,0,0-.167.434c-.8-1.1-1.685-1.8-2.82-1.485a15.572,15.572,0,0,0-2.753,1.351c-.717-1.518-1.685-1.869-3.2-.951a1.3,1.3,0,0,1-1.6-.05,1.829,1.829,0,0,0-2.252-.067.891.891,0,0,1-.734.083,5.084,5.084,0,0,0-3.487-.417,2.45,2.45,0,0,0-1.935,3.654.7.7,0,0,1-.1.617c-1.218.818-2.536,1.418-3.988.834a3.405,3.405,0,0,1-2.035-3.2,7.859,7.859,0,0,1,1.652-5.472,8.86,8.86,0,0,1,2.4-2.119c1.168-.717,1.852-.45,2.653.651.25.334.467.767.8.934a3.548,3.548,0,0,0,1.9.567c1.935-.25,2.669-2.4,1.435-4.054a5.868,5.868,0,0,0-4.838-2.369c-7.391-.184-13.047,7.675-10.628,14.749a7.28,7.28,0,0,0,9.243,4.922,24.059,24.059,0,0,0,2.853-1.185c0,.2.017.367,0,.517a38.434,38.434,0,0,0-.3,3.9,2.543,2.543,0,0,0,2.586,2.519,2.454,2.454,0,0,0,2.586-2.319,17.717,17.717,0,0,0-.1-2.653c-.1-1.568-.234-3.12-.35-4.688.868-.083,1.084.167,1,.9a2.889,2.889,0,0,0,3.821,3.22c.367-.1.717-.3,1.1-.384a1.492,1.492,0,0,1,.9.05,3.142,3.142,0,0,0,3.6-.25c.217-.15.434-.317.567-.417A12.489,12.489,0,0,0,157.57,56.9c.467.15,1.068-.1,1.552.017A2.44,2.44,0,0,0,162.042,55.563Z" transform="translate(-127.206 -36.309)"/><path class="b" d="M449.464,54.337c-.35.217-.667.417-.984.617a9.027,9.027,0,0,1-6.707,1.635,8.456,8.456,0,0,1-6.807-7.741,12.159,12.159,0,0,1,8.342-12.8,7.622,7.622,0,0,1,8.142,1.5,3.415,3.415,0,0,1,.767,4.238,2.8,2.8,0,0,1-4.438.45,6.931,6.931,0,0,1-.534-.651c-.918-1.268-1.6-1.4-2.853-.384a8.321,8.321,0,0,0-3.02,5.573,3.864,3.864,0,0,0,.667,3.087,2.318,2.318,0,0,0,2.886.834,6.12,6.12,0,0,0,2.953-2.219c.918-1.251,1.952-2.052,3.6-1.318.184.083.6-.184.818-.384,1.418-1.3,3.02-1.7,4.321-.868a1.36,1.36,0,0,0,1.735.017,2.773,2.773,0,0,1,3.137.15,1.08,1.08,0,0,0,.934.017c1.535-.868,2.536-.751,3.921.45a.813.813,0,0,0,.684.05c.751-.317,1.5-.667,2.219-1.051a.94.94,0,0,0,.434-.651c-.133-1.552-.35-3.087-.467-4.638a7.087,7.087,0,0,1,.117-2.453c.451-1.6,1.785-2.286,3.537-2a2.822,2.822,0,0,1,2.386,2.97c-.117,2.069-.4,4.138-.6,6.207-.1,1.034-.083,1,.934.734a3.478,3.478,0,0,1,1.8-.033,2.673,2.673,0,0,0,1.8-.017,2.756,2.756,0,0,1,3.721,2.72c.05,1.285-.384,2.569-.417,3.871-.067,1.735.05,3.487.067,5.222a16.481,16.481,0,0,1-.033,2.4,3.175,3.175,0,0,1-2.469,2.419,3.057,3.057,0,0,1-2.986-2.069,8.593,8.593,0,0,1-.1-2.619c.05-.567.017-.784-.617-.951a5.022,5.022,0,0,0-3.387-.017c-.5.2-1.251-.267-1.885-.384a1.66,1.66,0,0,0-.9-.017,3.51,3.51,0,0,1-3.57-.05,1.017,1.017,0,0,0-.834.1,2.952,2.952,0,0,1-3.3-.2.958.958,0,0,0-.9.017,3.179,3.179,0,0,1-2.286.567,20.4,20.4,0,0,1-2.286-.217,4.217,4.217,0,0,0-2.72-.017,3.5,3.5,0,0,1-4.538-1.7C449.681,54.62,449.6,54.52,449.464,54.337Zm8.075-7.007c-1.919-1.819-3.4-1.752-5.222.25-.033.033-.067.117-.1.133-.234.05-.517.167-.7.083-1.351-.617-2.069-.384-3.036.734a10.953,10.953,0,0,1-2.586,2.3c-2.436,1.452-4.838.083-5.022-2.77a8.085,8.085,0,0,1,1.668-5.556,7.676,7.676,0,0,1,2.286-2.119c1.285-.7,2.135-.467,2.753.651a3.55,3.55,0,0,0,1.719,1.435,2.151,2.151,0,0,0,2.569-1.051,2.717,2.717,0,0,0-.35-3.037,6.347,6.347,0,0,0-5.973-2.269,11.48,11.48,0,0,0-9.694,14.4,7.546,7.546,0,0,0,8.275,5.623,11.228,11.228,0,0,0,5.239-2.436c.167-.117.35-.234.617-.4a2.816,2.816,0,0,0,2.3,2.8,3.789,3.789,0,0,0,3.437-1.168c2.252,1.869,4.538,1.785,6.323-.184.15.2.284.4.45.584a1.939,1.939,0,0,0,2.3.751,3.025,3.025,0,0,1,2.986,0c1,.484,2.035-.15,2.953-.784a2.532,2.532,0,0,0,3.6.284.608.608,0,0,1,.45-.067c.918.284,1.819.584,2.853.9,0,.017-.017.267-.05.5a13.574,13.574,0,0,0-.267,2.136,2.446,2.446,0,0,0,2.369,2.519,2.382,2.382,0,0,0,2.486-2.386,6.068,6.068,0,0,0-.083-1.735,17.589,17.589,0,0,1,.217-7.107,5.951,5.951,0,0,0,.083-2.3,2.288,2.288,0,0,0-3.554-1.618.852.852,0,0,1-1.035.033,2.39,2.39,0,0,0-3.12.417l-.7.7c.15-1.9.25-3.52.4-5.155.1-1.185.334-2.369.367-3.554a2.428,2.428,0,0,0-1.885-2.536,2.328,2.328,0,0,0-2.786,1.118,5.106,5.106,0,0,0-.384,2.4c.1,1.835.35,3.654.567,5.472.067.584-.083.717-.684.8a5.455,5.455,0,0,0-1.969.8,5.8,5.8,0,0,0-1.084,1.185c-.984-2.336-2.119-2.519-4.638-.9C460.425,45.577,458.857,45.677,457.539,47.329Z" transform="translate(-383.579 -35.5)"/><path class="b" d="M246.114,63.452a18.672,18.672,0,0,1-2.352,1.952c-.934.551-1.535.217-2.336-1a19.191,19.191,0,0,1-2.019,1.034c-1.6.617-2.686-.217-2.3-1.885a12.878,12.878,0,0,1,1.385-2.8,6.61,6.61,0,0,1,.534-.784,13.315,13.315,0,0,0-1.869.033c-.167.017-.334.4-.4.634-.15.551-.45.984-1.018.884-.651-.133-.684-.734-.6-1.285a8.777,8.777,0,0,1,.25-.884c.3-1,.551-1.1,1.452-.567a2.394,2.394,0,0,0,2.669-.033,2.952,2.952,0,0,1,1.051-.184,3.927,3.927,0,0,1-.1,1c-.417,1.051-.918,2.086-1.3,3.137-.234.617-.45,1.351.367,1.735.584.284,1.752-.467,1.919-1.235a7.323,7.323,0,0,1,1.985-3.787,4.534,4.534,0,0,1,1.435-.934.948.948,0,0,1,1.318.534,1.646,1.646,0,0,1-.417,1.185c-.25.3-.734.384-1.051.651a8.424,8.424,0,0,0-1.485,1.5c-.367.551,0,1.084.467,1.435a.906.906,0,0,0,1.318-.284c.3-.384.45-.884.751-1.285a5.694,5.694,0,0,1,.951-.818,4.225,4.225,0,0,1,.734.918c.25.551.334,1.168.567,1.735.083.2.4.317.617.467.117-.2.334-.384.35-.584.05-1.151.067-2.3.083-3.454,0-.434-.2-.934-.05-1.3a1.3,1.3,0,0,1,.918-.717c.2-.033.617.484.684.818a5.765,5.765,0,0,1-.15,1.385,1.986,1.986,0,0,0,.15.6c.2-.067.45-.067.584-.2a11.737,11.737,0,0,0,.9-1.1,7.406,7.406,0,0,1,.767-.984c.5-.45,1.084-.834,1.8-.367.717.45.417,1.051.234,1.635-.284.918-.617,1.835-.818,2.786a1.21,1.21,0,0,0,.417,1.034,1.164,1.164,0,0,0,1.068-.317,11.822,11.822,0,0,0,1.4-2.1c.367-.684.567-1.452.934-2.119a2.539,2.539,0,0,1,.851-.884,1.073,1.073,0,0,1,1.6.267,1.052,1.052,0,0,1-.634,1.552,3.158,3.158,0,0,0-1.8,1.635,1.189,1.189,0,0,0,.3,1.568,1.041,1.041,0,0,0,1.435-.1,4.027,4.027,0,0,0,1.9-3.187c0-2.636-.15-5.272-.25-7.892-.033-.751-.184-1.485-.234-2.236-.083-1.1.384-1.718,1.235-1.668.8.033,1.185.617,1.051,1.735-.184,1.685-.5,3.354-.584,5.055-.1,2.186-.033,4.371.033,6.557a7.207,7.207,0,0,0,.45,1.6,8.761,8.761,0,0,1,.25.884c.1.567-.017,1.084-.667,1.251a1.038,1.038,0,0,1-1.235-.767,8.067,8.067,0,0,1-.284-1.084,12.246,12.246,0,0,1-2.453,1.769c-1.318.517-1.735-.634-2.2-1.852a15.128,15.128,0,0,1-1.185,1.351c-1.168,1.034-2.169.7-2.386-.851a23.159,23.159,0,0,1-.033-2.636,1.8,1.8,0,0,0-.167-.584,2.769,2.769,0,0,0-.517.2,10.494,10.494,0,0,0-1.452,1.118,1.613,1.613,0,0,0-.384.951c-.017.517.15,1.051.117,1.568-.05.767-.6,1.018-1.3.7-.217-.1-.584-.2-.734-.1-.818.567-1.318.067-1.735-.517A13.018,13.018,0,0,1,246.114,63.452Z" transform="translate(-217.101 -46.4)"/><path class="b" d="M150.872,60.218a3.332,3.332,0,0,0-.517-.1c-.551-.05-.968-.35-.884-.884.067-.384.434-.968.734-1.018a7.663,7.663,0,0,1,2.469,0,1.092,1.092,0,0,1,.584.884c-1.068,2.97-.417,5.94-.15,8.909a11.165,11.165,0,0,1,.067,1.668,1.186,1.186,0,0,1-2.352.133,4.432,4.432,0,0,1,0-1.151c.167-1.819.367-3.654.534-5.472a10.343,10.343,0,0,0,0-1.034c-.417.317-.651.484-.851.667a9.045,9.045,0,0,1-5.906,2.553,5.434,5.434,0,0,1-5.189-3.153c-2.719-5.239.634-12.38,6.407-13.7a7.449,7.449,0,0,1,4.188.05,3.193,3.193,0,0,1,2.086,1.785c.2.484.284.984-.25,1.335-.551.367-1,.133-1.4-.3a3.579,3.579,0,0,1-.3-.4c-1.351-1.9-2.553-2.2-4.655-1.168-2.953,1.452-5.306,6.273-4.621,9.493.784,3.671,3.721,5.122,7.124,3.437a16.654,16.654,0,0,0,2.653-1.985C150.739,60.669,150.755,60.469,150.872,60.218Z" transform="translate(-136.575 -46.12)"/><path class="b" d="M561.22,63.757a6.184,6.184,0,0,1-.551.751,5.51,5.51,0,0,1-1.3,1.118,1.5,1.5,0,0,1-2.152-.8,3.57,3.57,0,0,0-.617-.918,1.891,1.891,0,0,1-.217.534,3,3,0,0,1-.717.9,2,2,0,0,1-1.335.367c-.317-.1-.517-.7-.684-1.118a6.328,6.328,0,0,1-.134-1.118c-.334.35-.5.567-.7.751a11.468,11.468,0,0,1-1.619,1.385,1.386,1.386,0,0,1-2.169-.884c-.084-.2-.167-.384-.25-.567-.1-.067-.217-.133-.317-.2a8.457,8.457,0,0,1-1.068,1.351c-1.1.934-1.9.7-2.219-.7a15.428,15.428,0,0,1-.133-2.636,4.632,4.632,0,0,0-.184-.767c-.234.117-.467.217-.7.334-.067.033-.117.117-.2.15a2.326,2.326,0,0,0-1.385,2.936c.25,1.051-.317,1.385-1.352,1.018a.905.905,0,0,0-.467-.033c-1.084.3-1.518.133-2.069-.851-.2-.35-.35-.734-.584-1.251a6.665,6.665,0,0,1-.651.684,8.964,8.964,0,0,1-1.835,1.485,1.51,1.51,0,0,1-2.186-1.769,8.105,8.105,0,0,1,2.035-4.388,4.16,4.16,0,0,1,1.285-.868,1.092,1.092,0,0,1,1.435.517c.35.567-.067.951-.484,1.251-.35.267-.8.4-1.135.684a6.5,6.5,0,0,0-1.418,1.452c-.367.551-.017,1.084.484,1.435a.92.92,0,0,0,1.335-.25c.3-.384.451-.884.768-1.268a6.414,6.414,0,0,1,.934-.834,4.788,4.788,0,0,1,.751.9c.234.517.3,1.135.551,1.652.117.25.484.367.734.551a5.343,5.343,0,0,0,.284-.717,8.824,8.824,0,0,0-.033-4.121,1.265,1.265,0,0,1,.133-.934,1.139,1.139,0,0,1,.951-.267.935.935,0,0,1,.534.7,14.646,14.646,0,0,1-.167,1.468,2,2,0,0,0,.184.667c.217-.083.5-.083.651-.234.534-.551,1.034-1.168,1.552-1.735a2.948,2.948,0,0,1,.818-.7,1.221,1.221,0,0,1,.984-.083,1.1,1.1,0,0,1,.417.884,16.378,16.378,0,0,1-.517,1.919,12.343,12.343,0,0,0-.4,2.019,1.046,1.046,0,0,0,.451.8.88.88,0,0,0,.8-.184,20.3,20.3,0,0,0,1.618-2.352c.367-.634.551-1.385.884-2.052a2.114,2.114,0,0,1,.651-.734c.8-.617,1.618-.584,1.985.017.35.584-.05,1.351-.8,1.869a7.069,7.069,0,0,0-1.7,1.6c-.183.25-.017.934.217,1.235.5.617,1.1.284,1.618-.117a5.114,5.114,0,0,0,1.952-4.488c-.117-2.8-.417-5.589-.634-8.392a7.047,7.047,0,0,1-.067-.834,1.15,1.15,0,0,1,1.235-1.185,1.035,1.035,0,0,1,1.051,1.235c-.084,1.251-.317,2.486-.4,3.721-.15,2.219-.284,4.438-.317,6.657a14.676,14.676,0,0,0,.367,2.8c.05.234.25.567.434.617s.534-.184.634-.384a7.757,7.757,0,0,0,.617-1.6c.217-.734.3-1.518.551-2.236a1.661,1.661,0,0,1,.834-.851,1.219,1.219,0,0,1,1.051.133,1.2,1.2,0,0,1,.234,1.018c-.083.384-.434.7-.617,1.068a11.977,11.977,0,0,0-.9,1.935,1.15,1.15,0,0,0,.551,1.435,1.338,1.338,0,0,0,1.685-.217,3.3,3.3,0,0,0,1.168-3.2,3.056,3.056,0,0,1-.1-1.385,1.45,1.45,0,0,1,.884-.884c.551-.117.951.3.951.9a9.865,9.865,0,0,1-.15,1.985,16.6,16.6,0,0,0-.133,7.358,3.386,3.386,0,0,1-.017,1.635,1.193,1.193,0,0,1-.918.734,1.54,1.54,0,0,1-.968-.818,2.173,2.173,0,0,1,0-1.135c.2-1.535.434-3.087.634-4.622a5.907,5.907,0,0,0,0-.767C561.387,63.807,561.3,63.791,561.22,63.757Z" transform="translate(-465.62 -46.573)"/><path class="b" d="M446.563,57.574a10.041,10.041,0,0,1,8.743-9.977,5.522,5.522,0,0,1,4.038,1,3.445,3.445,0,0,1,1,1.452,1.069,1.069,0,0,1-.334.968,1.27,1.27,0,0,1-1.068-.05,1.881,1.881,0,0,1-.651-.734,2.992,2.992,0,0,0-4.338-1.135,9.214,9.214,0,0,0-4.338,5.489,7.411,7.411,0,0,0-.267,4.905c1.235,3.6,4.872,4.471,8.025,1.952a20.19,20.19,0,0,0,1.852-1.919c.317-.334.584-.868,1.151-.5.534.35.183.8,0,1.185-1.385,2.72-5.539,4.972-8.542,4.521a5.579,5.579,0,0,1-4.5-3.454,9.914,9.914,0,0,1-.767-3.2A4.832,4.832,0,0,1,446.563,57.574Z" transform="translate(-393.275 -45.545)"/></svg>