<svg xmlns="http://www.w3.org/2000/svg" width="166.84" height="45.136" viewBox="0 0 166.84 45.136"><defs><style>.a{fill:#fff;}.b{fill:#003687;}</style></defs><path class="a" d="M459.347,67.135c-.589.364-1.121.7-1.653,1.037-3.447,2.214-7.145,3.531-11.264,2.746a14.2,14.2,0,0,1-11.432-13,20.42,20.42,0,0,1,14.01-21.492c5.016-1.709,9.667-1.149,13.674,2.522a5.735,5.735,0,0,1,1.289,7.117,4.705,4.705,0,0,1-7.453.757,11.642,11.642,0,0,1-.9-1.093c-1.541-2.13-2.69-2.354-4.792-.644a13.974,13.974,0,0,0-5.072,9.359,6.489,6.489,0,0,0,1.121,5.184,3.894,3.894,0,0,0,4.848,1.4,10.279,10.279,0,0,0,4.96-3.727c1.541-2.1,3.278-3.447,6.052-2.214.308.14,1.009-.308,1.373-.644,2.382-2.186,5.072-2.858,7.257-1.457a2.283,2.283,0,0,0,2.914.028,4.657,4.657,0,0,1,5.268.252,1.813,1.813,0,0,0,1.569.028c2.578-1.457,4.259-1.261,6.585.757a1.366,1.366,0,0,0,1.149.084c1.261-.532,2.522-1.121,3.727-1.765a1.578,1.578,0,0,0,.729-1.093c-.224-2.606-.588-5.184-.785-7.79a11.9,11.9,0,0,1,.2-4.119c.757-2.69,3-3.839,5.94-3.362a4.739,4.739,0,0,1,4.007,4.988c-.2,3.475-.673,6.949-1.009,10.424-.168,1.737-.14,1.681,1.569,1.233a5.841,5.841,0,0,1,3.026-.056,4.49,4.49,0,0,0,3.026-.028c3.334-.981,6.109.981,6.249,4.567.084,2.158-.644,4.315-.7,6.5-.112,2.914.084,5.856.112,8.771a27.663,27.663,0,0,1-.056,4.035c-.28,2.3-2.606,3.727-4.147,4.063-1.737.392-4.539-1.485-5.016-3.475a14.435,14.435,0,0,1-.168-4.4c.084-.953.028-1.317-1.037-1.6A8.434,8.434,0,0,0,498.828,71c-.841.336-2.1-.448-3.166-.644a2.787,2.787,0,0,0-1.513-.028c-2.017.925-3.979,1.177-6-.084a1.708,1.708,0,0,0-1.4.168,4.958,4.958,0,0,1-5.548-.336,1.61,1.61,0,0,0-1.513.028,5.34,5.34,0,0,1-3.839.953,34.264,34.264,0,0,1-3.839-.364,7.082,7.082,0,0,0-4.567-.028c-3.306,1.093-5.828.14-7.622-2.858C459.712,67.612,459.571,67.444,459.347,67.135Z" transform="translate(-348.695 -35.5)"/><path class="a" d="M127.429,54.02a37.058,37.058,0,0,1,2.046-6.921c3.559-7.482,12.245-11.881,20.063-10.312,3.5.7,6.529,3.447,7.061,6.417.448,2.578-.5,4.539-2.746,5.52a4.927,4.927,0,0,1-5.884-1.625c-.112-.14-.224-.308-.336-.448-1.485-2.242-2.354-2.41-4.651-.953-3.587,2.27-6.165,8.07-5.324,12.217.785,3.951,3.867,5.408,7.9,2.97.252-.14.364-.813.28-1.177-.869-3.334,1.065-6.389,4.511-6.557a40.564,40.564,0,0,1,5.772.532,2.951,2.951,0,0,0,1.317-.168,3.774,3.774,0,0,1,3.979.308,1.687,1.687,0,0,0,2.13.056c2.158-1.261,3.559-1.009,5.52.5a1.557,1.557,0,0,0,1.4.112c2.466-1.625,4.848-2.046,7.369-.112.224.168.869.028,1.177-.168a5.017,5.017,0,0,1,5.744-.392,2.1,2.1,0,0,0,1.6.028,5.192,5.192,0,0,1,6.333.729c.729.672,1.093.532,1.849,0a8.857,8.857,0,0,1,3-1.373c.953-.252,1.177-.616,1.093-1.541-.336-3.475-.672-6.977-.785-10.452a4.566,4.566,0,0,1,3.475-4.4c2.522-.616,4.764.14,5.94,2.018a7.32,7.32,0,0,1,.757,4.876c-.476,4.455-1.065,8.911-1.2,13.366a23.909,23.909,0,0,0,1.121,7.257c1.065,3.643-.056,6.613-3.362,7.313-1.065.224-2.326-.336-3.475-.476a3.337,3.337,0,0,0-1.653-.056,6.175,6.175,0,0,1-5.884-.084,1.752,1.752,0,0,0-1.4.056,4.892,4.892,0,0,1-5.632-.308,1.373,1.373,0,0,0-1.317,0,5.147,5.147,0,0,1-4.343.953c-1.009-.2-2.326.252-3.11-.224a4.763,4.763,0,0,0-5.184-.028c-1.485.785-3.082.364-4.567-.364a1.793,1.793,0,0,0-1.317-.084c-3.082,1.289-5.884,1.345-8.21-1.457-.056-.056-.168-.056-.448-.14,0,.5-.028.953,0,1.4a38.756,38.756,0,0,1,.2,5.968c-.28,2.634-3.418,4.9-5.716,4.483a6.132,6.132,0,0,1-4.6-5.24,34.782,34.782,0,0,1,.252-4.175c.028-.5.084-.981.168-1.737a13.677,13.677,0,0,0-1.457.364c-8.406,3.615-16.5-.224-19.026-9.051a32.14,32.14,0,0,1-.616-3.419A39.109,39.109,0,0,1,127.429,54.02Z" transform="translate(-127.206 -36.199)"/><path class="b" d="M127.429,54.02a37.058,37.058,0,0,1,2.046-6.921c3.559-7.482,12.245-11.881,20.063-10.312,3.5.7,6.529,3.447,7.061,6.417.448,2.578-.5,4.539-2.746,5.52a4.927,4.927,0,0,1-5.884-1.625c-.112-.14-.224-.308-.336-.448-1.485-2.242-2.354-2.41-4.651-.953-3.587,2.27-6.165,8.07-5.324,12.217.785,3.951,3.867,5.408,7.9,2.97.252-.14.364-.813.28-1.177-.869-3.334,1.065-6.389,4.511-6.557a40.564,40.564,0,0,1,5.772.532,2.951,2.951,0,0,0,1.317-.168,3.774,3.774,0,0,1,3.979.308,1.687,1.687,0,0,0,2.13.056c2.158-1.261,3.559-1.009,5.52.5a1.557,1.557,0,0,0,1.4.112c2.466-1.625,4.848-2.046,7.369-.112.224.168.869.028,1.177-.168a5.017,5.017,0,0,1,5.744-.392,2.1,2.1,0,0,0,1.6.028,5.192,5.192,0,0,1,6.333.729c.729.672,1.093.532,1.849,0a8.857,8.857,0,0,1,3-1.373c.953-.252,1.177-.616,1.093-1.541-.336-3.475-.672-6.977-.785-10.452a4.566,4.566,0,0,1,3.475-4.4c2.522-.616,4.764.14,5.94,2.018a7.32,7.32,0,0,1,.757,4.876c-.476,4.455-1.065,8.911-1.2,13.366a23.909,23.909,0,0,0,1.121,7.257c1.065,3.643-.056,6.613-3.362,7.313-1.065.224-2.326-.336-3.475-.476a3.337,3.337,0,0,0-1.653-.056,6.175,6.175,0,0,1-5.884-.084,1.752,1.752,0,0,0-1.4.056,4.892,4.892,0,0,1-5.632-.308,1.373,1.373,0,0,0-1.317,0,5.147,5.147,0,0,1-4.343.953c-1.009-.2-2.326.252-3.11-.224a4.763,4.763,0,0,0-5.184-.028c-1.485.785-3.082.364-4.567-.364a1.793,1.793,0,0,0-1.317-.084c-3.082,1.289-5.884,1.345-8.21-1.457-.056-.056-.168-.056-.448-.14,0,.5-.028.953,0,1.4a38.756,38.756,0,0,1,.2,5.968c-.28,2.634-3.418,4.9-5.716,4.483a6.132,6.132,0,0,1-4.6-5.24,34.782,34.782,0,0,1,.252-4.175c.028-.5.084-.981.168-1.737a13.677,13.677,0,0,0-1.457.364c-8.406,3.615-16.5-.224-19.026-9.051a32.14,32.14,0,0,1-.616-3.419A39.109,39.109,0,0,1,127.429,54.02Zm58.283,14.515c2.606,2.83,3.334,2.942,6.725,1.261a1.25,1.25,0,0,1,1.093.084c1.933,1.541,3.951,1.233,5.884.14a1.372,1.372,0,0,1,1.821.112,3.575,3.575,0,0,0,4.315.2,3.633,3.633,0,0,0,1.849-3.783c-.084-.813-.392-1.625-.56-2.438a27.332,27.332,0,0,1-.981-5.324c0-3.643.336-7.257.616-10.9.168-1.989.645-3.979.729-5.968a4.274,4.274,0,0,0-4.175-4.539,4.451,4.451,0,0,0-4.567,4.371,17.607,17.607,0,0,0,.112,2.1c.308,2.97.588,5.94.925,8.911.112.925-.14,1.233-1.121,1.2a5.225,5.225,0,0,0-4.315,2.214c-.224.308-.448.616-.729.981-1.961-3.531-4.035-4.007-7.454-1.933a1.46,1.46,0,0,1-1.233-.252,3.848,3.848,0,0,0-5.912.925,5,5,0,0,0-.28.729c-1.345-1.849-2.83-3.026-4.736-2.494A26.154,26.154,0,0,0,169.1,56.4c-1.2-2.55-2.83-3.138-5.38-1.6a2.185,2.185,0,0,1-2.69-.084,3.071,3.071,0,0,0-3.783-.112,1.5,1.5,0,0,1-1.233.14c-1.877-1.121-3.895-.981-5.856-.7-3.138.448-4.511,3.138-3.25,6.137a1.183,1.183,0,0,1-.168,1.037c-2.046,1.373-4.259,2.382-6.7,1.4-2.354-.925-3.222-3.026-3.419-5.38a13.2,13.2,0,0,1,2.774-9.191,14.88,14.88,0,0,1,4.035-3.559c1.961-1.2,3.11-.757,4.455,1.093.42.56.785,1.289,1.345,1.569a5.96,5.96,0,0,0,3.194.953c3.25-.42,4.483-4.035,2.41-6.809a9.855,9.855,0,0,0-8.126-3.979c-12.413-.308-21.912,12.89-17.849,24.77,2.354,6.865,8.574,10.228,15.523,8.266a40.414,40.414,0,0,0,4.792-1.989c0,.336.028.616,0,.869a64.548,64.548,0,0,0-.5,6.557,4.27,4.27,0,0,0,4.343,4.231,4.122,4.122,0,0,0,4.343-3.895,29.762,29.762,0,0,0-.168-4.455c-.168-2.634-.392-5.24-.588-7.874,1.457-.14,1.821.28,1.681,1.513-.42,3.895,2.662,6.417,6.417,5.408.616-.168,1.2-.5,1.849-.644a2.506,2.506,0,0,1,1.513.084,5.277,5.277,0,0,0,6.052-.42c.364-.252.729-.532.953-.7a20.975,20.975,0,0,0,3.138,1.737c.785.252,1.793-.168,2.606.028A4.1,4.1,0,0,0,185.712,68.535Z" transform="translate(-127.206 -36.199)"/><path class="b" d="M459.347,67.135c-.589.364-1.121.7-1.653,1.037-3.447,2.214-7.145,3.531-11.264,2.746a14.2,14.2,0,0,1-11.432-13,20.42,20.42,0,0,1,14.01-21.492c5.016-1.709,9.667-1.149,13.674,2.522a5.735,5.735,0,0,1,1.289,7.117,4.705,4.705,0,0,1-7.453.757,11.642,11.642,0,0,1-.9-1.093c-1.541-2.13-2.69-2.354-4.792-.644a13.974,13.974,0,0,0-5.072,9.359,6.489,6.489,0,0,0,1.121,5.184,3.894,3.894,0,0,0,4.848,1.4,10.279,10.279,0,0,0,4.96-3.727c1.541-2.1,3.278-3.447,6.052-2.214.308.14,1.009-.308,1.373-.644,2.382-2.186,5.072-2.858,7.257-1.457a2.283,2.283,0,0,0,2.914.028,4.657,4.657,0,0,1,5.268.252,1.813,1.813,0,0,0,1.569.028c2.578-1.457,4.259-1.261,6.585.757a1.366,1.366,0,0,0,1.149.084c1.261-.532,2.522-1.121,3.727-1.765a1.578,1.578,0,0,0,.729-1.093c-.224-2.606-.588-5.184-.785-7.79a11.9,11.9,0,0,1,.2-4.119c.757-2.69,3-3.839,5.94-3.362a4.739,4.739,0,0,1,4.007,4.988c-.2,3.475-.673,6.949-1.009,10.424-.168,1.737-.14,1.681,1.569,1.233a5.841,5.841,0,0,1,3.026-.056,4.49,4.49,0,0,0,3.026-.028c3.334-.981,6.109.981,6.249,4.567.084,2.158-.644,4.315-.7,6.5-.112,2.914.084,5.856.112,8.771a27.663,27.663,0,0,1-.056,4.035c-.28,2.3-2.606,3.727-4.147,4.063-1.737.392-4.539-1.485-5.016-3.475a14.435,14.435,0,0,1-.168-4.4c.084-.953.028-1.317-1.037-1.6A8.434,8.434,0,0,0,498.828,71c-.841.336-2.1-.448-3.166-.644a2.787,2.787,0,0,0-1.513-.028c-2.017.925-3.979,1.177-6-.084a1.708,1.708,0,0,0-1.4.168,4.958,4.958,0,0,1-5.548-.336,1.61,1.61,0,0,0-1.513.028,5.34,5.34,0,0,1-3.839.953,34.264,34.264,0,0,1-3.839-.364,7.082,7.082,0,0,0-4.567-.028c-3.306,1.093-5.828.14-7.622-2.858C459.712,67.612,459.571,67.444,459.347,67.135Zm13.562-11.769c-3.222-3.054-5.716-2.942-8.77.42-.056.056-.112.2-.168.224-.392.084-.869.28-1.177.14-2.27-1.037-3.475-.644-5.1,1.233a18.4,18.4,0,0,1-4.343,3.867c-4.091,2.438-8.126.14-8.434-4.651a13.579,13.579,0,0,1,2.8-9.331,12.894,12.894,0,0,1,3.839-3.559c2.158-1.177,3.587-.785,4.623,1.093a5.963,5.963,0,0,0,2.886,2.41,3.613,3.613,0,0,0,4.315-1.765,4.563,4.563,0,0,0-.588-5.1,10.66,10.66,0,0,0-10.031-3.811,19.28,19.28,0,0,0-16.28,24.182,12.673,12.673,0,0,0,13.9,9.443,18.856,18.856,0,0,0,8.8-4.091c.28-.2.588-.392,1.037-.672q.336,3.909,3.867,4.707c2.3.532,4.147-.532,5.772-1.961,3.783,3.138,7.622,3,10.62-.308.252.336.476.672.757.981,1.037,1.2,2.466,1.933,3.867,1.261a5.081,5.081,0,0,1,5.016,0c1.681.813,3.419-.252,4.96-1.317a4.253,4.253,0,0,0,6.053.476,1.021,1.021,0,0,1,.757-.112c1.541.476,3.054.981,4.792,1.513,0,.028-.028.448-.084.841a22.813,22.813,0,0,0-.448,3.587,4.108,4.108,0,0,0,3.979,4.231c2.27.084,3.951-1.485,4.175-4.007a10.192,10.192,0,0,0-.14-2.914,29.54,29.54,0,0,1,.364-11.937,10,10,0,0,0,.14-3.867,3.843,3.843,0,0,0-5.968-2.718,1.43,1.43,0,0,1-1.737.056,4.014,4.014,0,0,0-5.24.7l-1.177,1.177c.252-3.194.42-5.912.672-8.658.168-1.989.56-3.979.617-5.968A4.078,4.078,0,0,0,498.66,36.9a3.91,3.91,0,0,0-4.679,1.877,8.576,8.576,0,0,0-.645,4.035c.168,3.082.589,6.137.953,9.191.112.981-.14,1.2-1.149,1.345a9.16,9.16,0,0,0-3.306,1.345,9.738,9.738,0,0,0-1.821,1.989c-1.653-3.923-3.559-4.231-7.79-1.513C477.757,52.425,475.123,52.593,472.909,55.367Z" transform="translate(-348.695 -35.5)"/><path class="b" d="M253.6,73.554a31.36,31.36,0,0,1-3.951,3.278c-1.569.925-2.578.364-3.923-1.681a32.233,32.233,0,0,1-3.391,1.737c-2.69,1.037-4.511-.364-3.867-3.166.392-1.653,1.513-3.166,2.326-4.707a11.106,11.106,0,0,1,.9-1.317,22.365,22.365,0,0,0-3.138.056c-.28.028-.56.673-.672,1.065-.252.925-.757,1.653-1.709,1.485-1.093-.224-1.149-1.233-1.009-2.158a14.746,14.746,0,0,1,.42-1.485c.5-1.681.925-1.849,2.438-.953a4.021,4.021,0,0,0,4.483-.056,4.958,4.958,0,0,1,1.765-.308,6.591,6.591,0,0,1-.168,1.681c-.7,1.765-1.541,3.5-2.186,5.268-.392,1.037-.757,2.27.616,2.914.981.476,2.942-.785,3.222-2.074a12.3,12.3,0,0,1,3.334-6.361,7.614,7.614,0,0,1,2.41-1.569,1.592,1.592,0,0,1,2.214.9,2.764,2.764,0,0,1-.7,1.989c-.42.5-1.233.644-1.765,1.093a14.149,14.149,0,0,0-2.494,2.522c-.616.925,0,1.821.785,2.41a1.522,1.522,0,0,0,2.214-.476c.5-.644.757-1.485,1.261-2.158a9.562,9.562,0,0,1,1.6-1.373,7.1,7.1,0,0,1,1.233,1.541c.42.925.56,1.961.953,2.914.14.336.672.532,1.037.785.2-.336.56-.644.588-.981.084-1.933.112-3.867.14-5.8,0-.729-.336-1.569-.084-2.186a2.183,2.183,0,0,1,1.541-1.2c.336-.056,1.037.813,1.149,1.373a9.682,9.682,0,0,1-.252,2.326,3.334,3.334,0,0,0,.252,1.009c.336-.112.757-.112.981-.336a19.718,19.718,0,0,0,1.513-1.849,12.434,12.434,0,0,1,1.289-1.653c.841-.757,1.821-1.4,3.026-.616,1.2.757.7,1.765.392,2.746-.476,1.541-1.037,3.082-1.373,4.679a2.033,2.033,0,0,0,.7,1.737,1.955,1.955,0,0,0,1.793-.532,19.858,19.858,0,0,0,2.354-3.531c.616-1.149.953-2.438,1.569-3.559a4.263,4.263,0,0,1,1.429-1.485,1.8,1.8,0,0,1,2.69.448,1.766,1.766,0,0,1-1.065,2.606,5.3,5.3,0,0,0-3.026,2.746,2,2,0,0,0,.5,2.634,1.748,1.748,0,0,0,2.41-.168c1.793-1.345,3.194-3.054,3.194-5.352,0-4.427-.252-8.855-.42-13.254-.056-1.261-.308-2.494-.392-3.755-.14-1.849.644-2.886,2.073-2.8,1.345.056,1.99,1.037,1.765,2.914-.308,2.83-.841,5.632-.981,8.49-.168,3.671-.056,7.341.056,11.012a12.1,12.1,0,0,0,.757,2.69,14.706,14.706,0,0,1,.42,1.485c.168.953-.028,1.821-1.121,2.1a1.743,1.743,0,0,1-2.074-1.289,13.547,13.547,0,0,1-.476-1.821c-1.429,1.065-2.634,2.382-4.119,2.97-2.214.869-2.914-1.065-3.7-3.11a25.4,25.4,0,0,1-1.989,2.27c-1.961,1.737-3.643,1.177-4.007-1.429a38.9,38.9,0,0,1-.056-4.427,3.024,3.024,0,0,0-.28-.981,4.65,4.65,0,0,0-.869.336,17.623,17.623,0,0,0-2.438,1.877,2.709,2.709,0,0,0-.644,1.6c-.028.869.252,1.765.2,2.634-.084,1.289-1.009,1.709-2.186,1.177-.364-.168-.981-.336-1.233-.168-1.373.953-2.214.112-2.914-.869A21.865,21.865,0,0,1,253.6,73.554Z" transform="translate(-204.869 -44.917)"/><path class="b" d="M159.312,68.353a5.6,5.6,0,0,0-.869-.168c-.925-.084-1.625-.588-1.485-1.485.112-.644.729-1.625,1.233-1.709a12.87,12.87,0,0,1,4.147,0,1.834,1.834,0,0,1,.981,1.485c-1.793,4.988-.7,9.975-.252,14.963a18.747,18.747,0,0,1,.112,2.8,1.991,1.991,0,0,1-3.951.224,7.442,7.442,0,0,1,0-1.933c.28-3.054.616-6.137.9-9.191.056-.448,0-.869,0-1.737-.7.532-1.093.813-1.429,1.121-2.858,2.494-6.024,4.231-9.919,4.287a9.127,9.127,0,0,1-8.714-5.3c-4.567-8.8,1.065-20.791,10.76-23.005a12.511,12.511,0,0,1,7.033.084,5.362,5.362,0,0,1,3.5,3c.336.813.476,1.653-.42,2.242-.925.616-1.681.224-2.354-.5a6.009,6.009,0,0,1-.5-.673c-2.27-3.194-4.287-3.7-7.818-1.961-4.96,2.438-8.911,10.536-7.762,15.944,1.317,6.165,6.249,8.6,11.965,5.772a27.97,27.97,0,0,0,4.455-3.334C159.088,69.109,159.116,68.773,159.312,68.353Z" transform="translate(-135.3 -44.675)"/><path class="b" d="M580.13,73.927a10.394,10.394,0,0,1-.925,1.261,9.251,9.251,0,0,1-2.185,1.877,2.51,2.51,0,0,1-3.615-1.345,6,6,0,0,0-1.037-1.541,3.175,3.175,0,0,1-.364.9,5.04,5.04,0,0,1-1.2,1.513,3.35,3.35,0,0,1-2.242.616c-.532-.168-.869-1.177-1.149-1.877a10.63,10.63,0,0,1-.224-1.877c-.56.588-.841.953-1.177,1.261a19.257,19.257,0,0,1-2.718,2.326c-1.653.925-2.97.308-3.643-1.485-.14-.336-.28-.644-.42-.953-.168-.112-.364-.224-.532-.336a14.208,14.208,0,0,1-1.793,2.27c-1.849,1.569-3.194,1.177-3.727-1.177a25.908,25.908,0,0,1-.224-4.427,7.8,7.8,0,0,0-.308-1.289c-.392.2-.785.364-1.177.56-.112.056-.2.2-.336.252a3.907,3.907,0,0,0-2.326,4.932c.42,1.765-.532,2.326-2.27,1.709a1.521,1.521,0,0,0-.785-.056c-1.821.5-2.55.224-3.474-1.429-.336-.588-.589-1.233-.981-2.1a11.186,11.186,0,0,1-1.093,1.149,15.053,15.053,0,0,1-3.082,2.494c-2.214,1.009-4.091-.588-3.671-2.97a13.612,13.612,0,0,1,3.419-7.369,6.985,6.985,0,0,1,2.158-1.457,1.833,1.833,0,0,1,2.41.869c.589.953-.112,1.6-.813,2.1-.588.448-1.345.673-1.906,1.149a10.91,10.91,0,0,0-2.382,2.438c-.617.925-.028,1.821.813,2.41a1.544,1.544,0,0,0,2.241-.42c.5-.644.757-1.485,1.289-2.13a10.765,10.765,0,0,1,1.569-1.4,8.042,8.042,0,0,1,1.261,1.513c.392.869.5,1.905.925,2.774.2.42.813.616,1.233.925a8.962,8.962,0,0,0,.476-1.2,14.818,14.818,0,0,0-.056-6.921,2.125,2.125,0,0,1,.224-1.569,1.914,1.914,0,0,1,1.6-.448,1.57,1.57,0,0,1,.9,1.177,24.582,24.582,0,0,1-.28,2.466,3.36,3.36,0,0,0,.308,1.121c.364-.14.841-.14,1.093-.392.9-.925,1.737-1.961,2.606-2.914a4.952,4.952,0,0,1,1.373-1.177,2.051,2.051,0,0,1,1.653-.14,1.848,1.848,0,0,1,.7,1.485,27.512,27.512,0,0,1-.869,3.222,20.733,20.733,0,0,0-.672,3.391,1.757,1.757,0,0,0,.757,1.345,1.478,1.478,0,0,0,1.345-.308,34.1,34.1,0,0,0,2.718-3.951c.616-1.065.925-2.326,1.485-3.447a3.55,3.55,0,0,1,1.093-1.233c1.345-1.037,2.718-.981,3.334.028.589.981-.084,2.27-1.345,3.138a11.87,11.87,0,0,0-2.858,2.69c-.308.42-.028,1.569.364,2.074.841,1.037,1.849.476,2.718-.2a8.589,8.589,0,0,0,3.278-7.538c-.2-4.707-.7-9.387-1.065-14.094a11.826,11.826,0,0,1-.112-1.4,1.931,1.931,0,0,1,2.073-1.989,1.738,1.738,0,0,1,1.766,2.074c-.14,2.1-.532,4.175-.672,6.249-.252,3.727-.476,7.454-.533,11.18A24.66,24.66,0,0,0,569.679,73c.084.392.42.953.729,1.037s.9-.308,1.065-.644a13.029,13.029,0,0,0,1.037-2.69c.364-1.233.5-2.55.925-3.755a2.789,2.789,0,0,1,1.4-1.429,2.048,2.048,0,0,1,1.765.224,2.013,2.013,0,0,1,.392,1.709c-.14.644-.729,1.177-1.037,1.793a20.116,20.116,0,0,0-1.513,3.25,1.931,1.931,0,0,0,.925,2.41,2.247,2.247,0,0,0,2.83-.364,5.535,5.535,0,0,0,1.961-5.38,5.134,5.134,0,0,1-.168-2.326,2.436,2.436,0,0,1,1.485-1.485c.925-.2,1.6.5,1.6,1.513a16.565,16.565,0,0,1-.252,3.334,27.876,27.876,0,0,0-.224,12.357,5.686,5.686,0,0,1-.028,2.746,2,2,0,0,1-1.541,1.233,2.586,2.586,0,0,1-1.625-1.373,3.651,3.651,0,0,1,0-1.905c.336-2.578.728-5.184,1.065-7.762a9.914,9.914,0,0,0,0-1.289C580.411,74.011,580.27,73.983,580.13,73.927Z" transform="translate(-419.574 -45.066)"/><path class="b" d="M446.568,64.381a16.863,16.863,0,0,1,14.683-16.756,9.274,9.274,0,0,1,6.781,1.681,5.784,5.784,0,0,1,1.681,2.438,1.8,1.8,0,0,1-.56,1.625,2.133,2.133,0,0,1-1.793-.084,3.158,3.158,0,0,1-1.093-1.233c-1.793-2.774-4.315-3.5-7.285-1.905-3.755,1.989-5.94,5.3-7.285,9.219-.925,2.718-1.4,5.492-.448,8.238,2.074,6.052,8.182,7.51,13.478,3.278a33.908,33.908,0,0,0,3.11-3.222c.532-.56.981-1.457,1.933-.841.9.588.308,1.345,0,1.989-2.326,4.567-9.3,8.35-14.347,7.594a9.369,9.369,0,0,1-7.566-5.8,16.65,16.65,0,0,1-1.289-5.38A8.122,8.122,0,0,1,446.568,64.381Z" transform="translate(-357.072 -44.178)"/></svg>