<svg xmlns="http://www.w3.org/2000/svg" width="21.702" height="28.533" viewBox="0 0 21.702 28.533"><defs><style>.a{fill:none;}.b,.c{stroke:none;}.c{fill:#fff;}</style></defs><g transform="translate(-41.895)"><g class="a" transform="translate(-57.533)"><path class="b" d="M110.279,13.954c3.172,0,5.744-3.124,5.744-6.977S115.179,0,110.279,0s-5.744,3.124-5.744,6.977S107.107,13.954,110.279,13.954Z"/><path class="c" d="M 110.2794494628906 11.95437526702881 C 111.2050094604492 11.95437526702881 112.0991668701172 11.48744583129883 112.7972030639648 10.63960552215576 C 113.5881500244141 9.678925514221191 114.0237426757813 8.378265380859375 114.0237426757813 6.977225780487061 C 114.0237426757813 5.795505523681641 113.9501647949219 4.111645698547363 113.3139114379883 3.136225700378418 C 113.111213684082 2.825465679168701 112.5727767944336 1.999995708465576 110.2794494628906 1.999995708465576 C 107.9860916137695 1.999995708465576 107.4476013183594 2.825495719909668 107.2448806762695 3.136265754699707 C 106.6085968017578 4.111705780029297 106.5350036621094 5.795535564422607 106.5350036621094 6.977225780487061 C 106.5350036621094 8.378265380859375 106.9706039428711 9.678915977478027 107.7615509033203 10.63958549499512 C 108.4596099853516 11.48744583129883 109.3538208007813 11.95437526702881 110.2794494628906 11.95437526702881 M 110.2794494628906 13.95437526702881 C 107.1069412231445 13.95437526702881 104.5350036621094 10.83060550689697 104.5350036621094 6.977225780487061 C 104.5350036621094 3.123765707015991 105.3795700073242 -4.273834292689571e-06 110.2794494628906 -4.273834292689571e-06 C 115.1793365478516 -4.273834292689571e-06 116.0237426757813 3.123765707015991 116.0237426757813 6.977225780487061 C 116.0237426757813 10.83061599731445 113.4518051147461 13.95437526702881 110.2794494628906 13.95437526702881 Z"/></g><g class="a" transform="translate(0 -275.885)"><path class="b" d="M41.9,300.493c0-.235,0-.066,0,0Z"/><path class="c" d="M 41.89627456665039 300.49267578125 C 41.89506530761719 300.4518127441406 41.89497375488281 300.3719177246094 41.89531326293945 300.3719177246094 C 41.89552307128906 300.3719177246094 41.89590072631836 300.4026794433594 41.89627456665039 300.49267578125 Z"/></g><g class="a" transform="translate(-244.49 -276.908)"><path class="b" d="M308.085,301.7c0-.064,0-.446,0,0Z"/><path class="c" d="M 308.0849914550781 301.6995544433594 C 308.0853576660156 301.5397338867188 308.0858764648438 301.4861450195313 308.0862121582031 301.4861450195313 C 308.0868225097656 301.4861450195313 308.0869750976563 301.6582641601563 308.0849914550781 301.6995544433594 Z"/></g><g class="a" transform="translate(-0.012 -163.25)"><path class="b" d="M63.6,187.576c-.106-6.713-.983-8.625-7.692-9.836a4.022,4.022,0,0,1-3.145,1.2,4.022,4.022,0,0,1-3.146-1.2c-6.635,1.2-7.565,3.082-7.688,9.618-.01.534-.015.562-.016.5,0,.116,0,.331,0,.705,0,0,1.6,3.22,10.849,3.22s10.849-3.22,10.849-3.22c0-.241,0-.408,0-.522A4.325,4.325,0,0,1,63.6,187.576Z"/><path class="c" d="M 52.75785446166992 189.7829895019531 C 58.62499618530273 189.7829895019531 60.89016723632813 188.4279937744141 61.60354614257813 187.8303985595703 C 61.59928894042969 187.7584991455078 61.59652328491211 187.6844177246094 61.59531402587891 187.6078948974609 C 61.55048370361328 184.7791900634766 61.369873046875 182.8164825439453 60.60913467407227 181.7733612060547 C 60.00611877441406 180.9465179443359 58.74232482910156 180.3665466308594 56.45130157470703 179.8840179443359 C 55.68033981323242 180.4017181396484 54.46557998657227 180.9433441162109 52.75785446166992 180.9433441162109 C 51.05000305175781 180.9433441162109 49.835205078125 180.4016723632813 49.06422424316406 179.8839569091797 C 46.79324340820313 180.3619384765625 45.53531265258789 180.9336853027344 44.926513671875 181.7462768554688 C 44.16069412231445 182.7684478759766 43.97519302368164 184.6656951904297 43.92412567138672 187.3957061767578 C 43.92003631591797 187.6131896972656 43.91674423217773 187.7511749267578 43.9141960144043 187.8348693847656 C 44.09152603149414 187.9835662841797 44.37017059326172 188.1831665039063 44.78302383422852 188.3967742919922 C 46.00527572631836 189.0291595458984 48.38098526000977 189.7829895019531 52.75785446166992 189.7829895019531 M 52.75785446166992 191.7829895019531 C 43.50608444213867 191.7829895019531 41.90890502929688 188.5632019042969 41.90890502929688 188.5632019042969 C 41.90890502929688 188.1887664794922 41.90841293334961 187.9740447998047 41.90801239013672 187.8579406738281 C 41.90842056274414 187.8719635009766 41.90896987915039 187.8813629150391 41.90969467163086 187.8813629150391 C 41.91217803955078 187.8813629150391 41.91671371459961 187.7711639404297 41.92447280883789 187.3581390380859 C 42.0467529296875 180.8219451904297 42.97676467895508 178.9375610351563 49.61224365234375 177.7400054931641 C 49.61224365234375 177.7400054931641 50.5567626953125 178.9433441162109 52.75785446166992 178.9433441162109 C 54.95895385742188 178.9433441162109 55.90330505371094 177.7400054931641 55.90330505371094 177.7400054931641 C 62.61199569702148 178.9507598876953 63.48868560791016 180.8635101318359 63.59506225585938 187.5762023925781 C 63.6008415222168 187.9425354003906 63.60430145263672 188.0503692626953 63.60630416870117 188.0503692626953 C 63.60664749145508 188.0503692626953 63.60695266723633 188.0471649169922 63.60721588134766 188.0415344238281 C 63.60697555541992 188.1553344726563 63.60680389404297 188.3226165771484 63.60680389404297 188.5632019042969 C 63.60680389404297 188.5632019042969 62.00946426391602 191.7829895019531 52.75785446166992 191.7829895019531 Z"/></g></g></svg>