<svg xmlns="http://www.w3.org/2000/svg" width="33.14" height="19.884" viewBox="0 0 33.14 19.884"><defs><style>.a{fill:#ffb600;}.b{fill:#f7981d;}.c{fill:#ff8500;}.d{fill:#ff5050;}.e{fill:#e52836;}.f{fill:#cb2026;}.g{fill:#fff;}.h{fill:#dce5e5;}</style></defs><g transform="translate(0 -100.8)"><path class="a" d="M221.484,110.742a9.942,9.942,0,1,1-19.884,0h0a9.942,9.942,0,1,1,19.884,0Z" transform="translate(-188.344 0)"/><path class="b" d="M211.542,100.8a9.968,9.968,0,0,1,9.942,9.942h0a9.942,9.942,0,1,1-19.884,0" transform="translate(-188.344 0)"/><path class="c" d="M352.8,100.8a9.968,9.968,0,0,1,9.942,9.942h0a9.934,9.934,0,0,1-9.942,9.942" transform="translate(-329.602 0)"/><path class="d" d="M9.837,100.8a9.942,9.942,0,0,0,.105,19.884,10.058,10.058,0,0,0,6.681-2.578h0a9.452,9.452,0,0,0,1-1.052H15.571a12.138,12.138,0,0,1-.736-1h3.524A6.739,6.739,0,0,0,18.937,115H14.256a6.27,6.27,0,0,1-.421-1.052h5.471a10.445,10.445,0,0,0,.526-3.156,13.578,13.578,0,0,0-.21-2.1h-6.1a7.691,7.691,0,0,1,.263-1.052h5.471a6.27,6.27,0,0,0-.421-1.052H14.2a10.432,10.432,0,0,1,.579-1.052h3.524a5,5,0,0,0-.789-1.052H15.571a8.968,8.968,0,0,1,1-1,9.707,9.707,0,0,0-6.681-2.578C9.889,100.8,9.889,100.8,9.837,100.8Z" transform="translate(0 0)"/><path class="e" d="M0,112.237a9.934,9.934,0,0,0,9.942,9.942,10.058,10.058,0,0,0,6.681-2.578h0a9.45,9.45,0,0,0,1-1.052H15.571a12.136,12.136,0,0,1-.736-1h3.524a6.739,6.739,0,0,0,.579-1.052H14.256a6.27,6.27,0,0,1-.421-1.052h5.471a10.445,10.445,0,0,0,.526-3.156,13.578,13.578,0,0,0-.21-2.1h-6.1a7.692,7.692,0,0,1,.263-1.052h5.471a6.27,6.27,0,0,0-.421-1.052H14.2a10.432,10.432,0,0,1,.579-1.052h3.524a5,5,0,0,0-.789-1.052H15.571a8.966,8.966,0,0,1,1-1A9.707,9.707,0,0,0,9.889,102.4H9.837" transform="translate(0 -1.495)"/><path class="f" d="M149.705,122.179a10.058,10.058,0,0,0,6.681-2.578h0a9.448,9.448,0,0,0,1-1.052h-2.052a12.14,12.14,0,0,1-.736-1h3.524a6.739,6.739,0,0,0,.579-1.052h-4.682a6.271,6.271,0,0,1-.421-1.052h5.471a10.445,10.445,0,0,0,.526-3.156,13.576,13.576,0,0,0-.21-2.1h-6.1a7.688,7.688,0,0,1,.263-1.052h5.471a6.269,6.269,0,0,0-.421-1.052h-4.629a10.434,10.434,0,0,1,.579-1.052h3.524a5,5,0,0,0-.789-1.052h-1.946a8.967,8.967,0,0,1,1-1,9.707,9.707,0,0,0-6.681-2.578H149.6" transform="translate(-139.763 -1.495)"/><g transform="translate(0.947 108.164)"><path class="g" d="M183.126,224.629l.158-.894a2.278,2.278,0,0,1-.263.053c-.368,0-.421-.21-.368-.316l.316-1.841h.579l.158-1h-.526l.105-.631h-1.052s-.631,3.472-.631,3.893a.79.79,0,0,0,.842.894A1.615,1.615,0,0,0,183.126,224.629Z" transform="translate(-170.606 -219.527)"/><path class="g" d="M210.4,231.073a1.673,1.673,0,0,0,1.841,1.841,2.731,2.731,0,0,0,1.1-.158l.21-1a3.153,3.153,0,0,1-1.1.263c-1.157,0-.947-.842-.947-.842h2.157a6.819,6.819,0,0,0,.158-.947,1.425,1.425,0,0,0-1.526-1.526C211.189,228.6,210.4,229.758,210.4,231.073Zm1.841-1.526c.579,0,.473.684.473.736h-1.157C211.557,230.231,211.663,229.547,212.241,229.547Z" transform="translate(-197.512 -227.653)"/><path class="g" d="M298.893,217.9l.21-1.157a2.586,2.586,0,0,1-.894.263c-.736,0-1.052-.579-1.052-1.21,0-1.263.631-1.946,1.368-1.946a1.757,1.757,0,0,1,.947.316l.158-1.1a3.7,3.7,0,0,0-1.21-.263c-1.21,0-2.42,1.052-2.42,3.051,0,1.315.631,2.209,1.894,2.209A4.72,4.72,0,0,0,298.893,217.9Z" transform="translate(-277.484 -212.8)"/><path class="g" d="M88.4,227.2a3.725,3.725,0,0,0-1.262.21l-.158.894a3.109,3.109,0,0,1,1.157-.21c.368,0,.684.053.684.368,0,.21-.053.263-.053.263h-.473c-.894,0-1.894.368-1.894,1.578,0,.947.631,1.157,1,1.157a1.581,1.581,0,0,0,1.1-.473l-.053.421H89.4l.421-2.893A1.247,1.247,0,0,0,88.4,227.2Zm.21,2.367c0,.158-.105,1-.736,1a.411.411,0,0,1-.421-.421c0-.263.158-.631.947-.631A.829.829,0,0,0,88.609,229.567Z" transform="translate(-81.666 -226.253)"/><path class="g" d="M136.41,230.714a1.348,1.348,0,0,0,1.578-1.368c0-1.315-1.262-1.052-1.262-1.578,0-.263.21-.368.579-.368.158,0,.736.053.736.053l.158-.947a4,4,0,0,0-1-.105c-.789,0-1.578.316-1.578,1.368,0,1.21,1.315,1.1,1.315,1.578,0,.316-.368.368-.631.368a3.44,3.44,0,0,1-.947-.158l-.158.947C135.253,230.608,135.516,230.714,136.41,230.714Z" transform="translate(-127.257 -225.506)"/><path class="g" d="M430.2,214.4l-.21,1.42a1.459,1.459,0,0,0-1-.526c-.947,0-1.789,1.157-1.789,2.525,0,.842.421,1.736,1.315,1.736a1.4,1.4,0,0,0,1-.421l-.053.368h1.052l.789-5.05Zm-.474,2.788c0,.579-.263,1.315-.842,1.315-.368,0-.579-.316-.579-.842,0-.842.368-1.368.842-1.368C429.515,216.294,429.725,216.557,429.725,217.188Z" transform="translate(-400.057 -214.295)"/><path class="g" d="M15.4,219.45l.631-3.787.105,3.787h.736l1.368-3.787-.579,3.787h1.1l.842-5.05H17.872l-1.052,3.1-.053-3.1H15.242l-.842,5.05Z" transform="translate(-14.4 -214.295)"/><path class="g" d="M261.157,232.9c.316-1.736.368-3.156,1.1-2.893a4.129,4.129,0,0,1,.368-1.21h-.21c-.473,0-.842.631-.842.631l.105-.579h-1l-.684,4.1h1.157Z" transform="translate(-243.851 -227.748)"/><path class="g" d="M348.4,227.2a3.726,3.726,0,0,0-1.262.21l-.158.894a3.109,3.109,0,0,1,1.157-.21c.368,0,.684.053.684.368,0,.21-.053.263-.053.263h-.473c-.894,0-1.894.368-1.894,1.578,0,.947.631,1.157,1,1.157a1.581,1.581,0,0,0,1.1-.473l-.053.421h.947l.421-2.893A1.228,1.228,0,0,0,348.4,227.2Zm.263,2.367c0,.158-.105,1-.736,1a.411.411,0,0,1-.421-.421c0-.263.158-.631.947-.631C348.609,229.567,348.609,229.567,348.662,229.567Z" transform="translate(-324.57 -226.253)"/><path class="g" d="M395.557,232.9c.316-1.736.368-3.156,1.1-2.893a4.129,4.129,0,0,1,.368-1.21h-.21c-.473,0-.842.631-.842.631l.105-.579h-1l-.684,4.1h1.157Z" transform="translate(-369.413 -227.748)"/></g><g transform="translate(0.947 108.164)"><path class="h" d="M180,223.893a.79.79,0,0,0,.842.894,2,2,0,0,0,.789-.158l.158-.894a2.278,2.278,0,0,1-.263.053c-.368,0-.421-.21-.368-.316l.316-1.841h.579l.158-1h-.526l.105-.631" transform="translate(-169.111 -219.527)"/><path class="h" d="M218.4,231.073c0,1.473.473,1.841,1.315,1.841a2.731,2.731,0,0,0,1.1-.158l.21-1a3.153,3.153,0,0,1-1.1.263c-1.157,0-.947-.842-.947-.842h2.157a6.82,6.82,0,0,0,.158-.947,1.425,1.425,0,0,0-1.525-1.526C218.663,228.6,218.4,229.758,218.4,231.073Zm1.315-1.526c.579,0,.684.684.684.736h-1.368C219.031,230.231,219.136,229.547,219.715,229.547Z" transform="translate(-204.986 -227.653)"/><path class="h" d="M306.367,217.9l.21-1.157a2.585,2.585,0,0,1-.894.263c-.736,0-1.052-.579-1.052-1.21,0-1.263.631-1.946,1.368-1.946a1.757,1.757,0,0,1,.947.316l.158-1.1a3.7,3.7,0,0,0-1.21-.263c-1.21,0-1.894,1.052-1.894,3.051,0,1.315.105,2.209,1.368,2.209A4.72,4.72,0,0,0,306.367,217.9Z" transform="translate(-284.958 -212.8)"/><path class="h" d="M86.979,229.852a3.11,3.11,0,0,1,1.157-.21c.368,0,.684.053.684.368,0,.21-.053.263-.053.263h-.473c-.894,0-1.894.368-1.894,1.578,0,.947.631,1.157,1,1.157a1.581,1.581,0,0,0,1.1-.473l-.053.421H89.4l.421-2.893c0-1.21-1.052-1.262-1.473-1.262m.789,2.262a1.722,1.722,0,0,1-1.262,1,.411.411,0,0,1-.421-.421c0-.263.158-.631.947-.631A4.3,4.3,0,0,0,89.135,231.062Z" transform="translate(-81.666 -227.748)"/><path class="h" d="M136,230.608a4.452,4.452,0,0,0,1.21.105,1.348,1.348,0,0,0,1.578-1.368c0-1.315-1.262-1.052-1.262-1.578,0-.263.21-.368.579-.368.158,0,.736.053.736.053l.158-.947a4,4,0,0,0-1-.105c-.789,0-1.052.316-1.052,1.368,0,1.21.789,1.1.789,1.578,0,.316-.368.368-.631.368" transform="translate(-128.004 -225.506)"/><path class="h" d="M437.408,216.568a1.458,1.458,0,0,0-1-.526c-.947,0-1.262,1.157-1.262,2.525,0,.842-.105,1.736.789,1.736a1.4,1.4,0,0,0,1-.421l-.053.368h1.052l.789-5.05m-1.368,2.735c0,.579-.473,1.315-1.052,1.315-.368,0-.579-.316-.579-.842,0-.842.368-1.368.842-1.368A.8.8,0,0,1,437.355,217.935Z" transform="translate(-407.476 -215.042)"/><path class="h" d="M15.4,219.45l.631-3.787.105,3.787h.736l1.368-3.787-.579,3.787h1.1l.842-5.05H18.293l-1.473,3.1-.053-3.1h-.579L14.4,219.45Z" transform="translate(-14.4 -214.295)"/><path class="h" d="M260.8,232.9h1.1c.316-1.736.368-3.156,1.1-2.893a4.13,4.13,0,0,1,.368-1.21h-.21c-.473,0-.842.631-.842.631l.105-.579" transform="translate(-244.598 -227.748)"/><path class="h" d="M346.979,229.852a3.11,3.11,0,0,1,1.157-.21c.368,0,.684.053.684.368,0,.21-.053.263-.053.263h-.473c-.894,0-1.894.368-1.894,1.578,0,.947.631,1.157,1,1.157a1.581,1.581,0,0,0,1.1-.473l-.053.421h.947l.421-2.893c0-1.21-1.052-1.262-1.473-1.262m.789,2.262a1.722,1.722,0,0,1-1.262,1,.411.411,0,0,1-.421-.421c0-.263.158-.631.947-.631A4.626,4.626,0,0,0,349.135,231.062Z" transform="translate(-324.57 -227.748)"/><path class="h" d="M395.2,232.9h1.1c.316-1.736.368-3.156,1.1-2.893a4.131,4.131,0,0,1,.368-1.21h-.21c-.473,0-.842.631-.842.631l.105-.579" transform="translate(-370.161 -227.748)"/></g></g></svg>