<?xml version="1.0" encoding="utf-8"?>
<!-- Generator: Adobe Illustrator 21.1.0, SVG Export Plug-In . SVG Version: 6.00 Build 0)  -->
<svg version="1.1"
	 id="svg3409" inkscape:version="0.91 r13725" sodipodi:docname="MasterCard 2016.svg" xmlns:cc="http://creativecommons.org/ns#" xmlns:dc="http://purl.org/dc/elements/1.1/" xmlns:inkscape="http://www.inkscape.org/namespaces/inkscape" xmlns:rdf="http://www.w3.org/1999/02/22-rdf-syntax-ns#" xmlns:sodipodi="http://sodipodi.sourceforge.net/DTD/sodipodi-0.dtd" xmlns:svg="http://www.w3.org/2000/svg"
	 xmlns="http://www.w3.org/2000/svg" xmlns:xlink="http://www.w3.org/1999/xlink" x="0px" y="0px" viewBox="0 0 1000 652"
	 style="enable-background:new 0 0 1000 652;" xml:space="preserve">
<style type="text/css">
	.st0{fill:#FFFFFF;}
</style>
<sodipodi:namedview  bordercolor="#666666" borderopacity="1" gridtolerance="10" guidetolerance="10" id="namedview4178" inkscape:current-layer="svg3409" inkscape:cx="400.80964" inkscape:cy="270.06961" inkscape:pageopacity="0" inkscape:pageshadow="2" inkscape:window-height="705" inkscape:window-maximized="1" inkscape:window-width="1366" inkscape:window-x="-8" inkscape:window-y="-8" inkscape:zoom="0.35355339" objecttolerance="10" pagecolor="#ffffff" showgrid="false">
	</sodipodi:namedview>
<path class="st0" d="M611,309c0-89.9-40.4-173.8-111-230.3C429.5,135.2,389,219.1,389,309c0,89.4,41.5,175.4,111,230.3
	C570.6,483.5,611,399.6,611,309z"/>
<path id="XMLID_1_" inkscape:connector-curvature="0" class="st0" d="M382,309c0-98.7,46.4-186.3,117.6-242.9
	C447.2,24.9,381.1,0,309,0C138.2,0,0,138.2,0,309s138.2,309,309,309c72.1,0,138.2-24.9,190.6-66.1C428.3,496.1,382,407.7,382,309z"
	/>
<path id="path22_1_" inkscape:connector-curvature="0" class="st0" d="M1000,309c0,170.8-138.2,309-309,309
	c-72.1,0-138.2-24.9-190.6-66.1C572.5,495.3,618,407.7,618,309S571.7,122.7,500.4,66.1C552.8,24.9,618.9,0,691,0
	C861.8,0,1000,139.1,1000,309z"/>
</svg>
