<svg xmlns="http://www.w3.org/2000/svg" width="82.676" height="104.273" viewBox="0 0 82.676 104.273"><defs><style>.a{fill:#e2066d;}</style></defs><g transform="translate(0 20.571)"><path class="a" d="M135.649,166.422l-4.656-58.676A7.332,7.332,0,0,0,123.715,101h-9.2v13.628a3.054,3.054,0,0,1-6.108,0V101H80.315v13.628a3.054,3.054,0,0,1-6.108,0V101h-9.2a7.331,7.331,0,0,0-7.278,6.733L53.073,166.43A16.98,16.98,0,0,0,70,184.708h48.722a16.978,16.978,0,0,0,16.926-18.286ZM108.12,136.541,92.326,152.335a3.052,3.052,0,0,1-4.32,0l-7.4-7.4a3.053,3.053,0,0,1,4.318-4.318l5.244,5.242L103.8,132.221a3.054,3.054,0,1,1,4.318,4.32Z" transform="translate(-53.023 -101.005)"/></g><g transform="translate(21.184)"><path class="a" d="M177.194,0a20.179,20.179,0,0,0-20.155,20.157v.413h6.108v-.413a14.048,14.048,0,1,1,28.1,0v.413h6.108v-.413A20.18,20.18,0,0,0,177.194,0Z" transform="translate(-157.039)"/></g></svg>