<svg xmlns="http://www.w3.org/2000/svg" width="12.684" height="17.158" viewBox="0 0 12.684 17.158"><defs><style>.a{fill:#000002;}</style></defs><g transform="translate(-33.362)"><path class="a" d="M75.9,38.8a3.74,3.74,0,1,0,3.74,3.74A3.744,3.744,0,0,0,75.9,38.8Zm0,6.474a2.734,2.734,0,1,1,2.734-2.734A2.737,2.737,0,0,1,75.9,45.274Z" transform="translate(-36.196 -36.198)"/><path class="a" d="M39.7,0a6.349,6.349,0,0,0-6.342,6.342c0,2.017,1.691,5.021,2.7,6.633a28.772,28.772,0,0,0,2.007,2.841c1.013,1.239,1.375,1.343,1.635,1.343s.606-.1,1.616-1.343a29.625,29.625,0,0,0,2.008-2.84c1.015-1.615,2.718-4.625,2.718-6.634A6.349,6.349,0,0,0,39.7,0ZM42.63,12.192a20.249,20.249,0,0,1-2.933,3.9,19.1,19.1,0,0,1-2.934-3.9c-1.523-2.482-2.4-4.617-2.4-5.857a5.336,5.336,0,1,1,10.672,0C45.04,7.575,44.162,9.707,42.63,12.192Z"/></g></svg>