<svg xmlns="http://www.w3.org/2000/svg" width="16.894" height="16.894" viewBox="0 0 16.894 16.894"><path d="M8.447,0a8.447,8.447,0,1,0,8.447,8.447A8.457,8.457,0,0,0,8.447,0Zm0,1.056a7.378,7.378,0,0,1,5.844,11.9,13.639,13.639,0,0,0-11.687,0,7.378,7.378,0,0,1,5.844-11.9Zm-5.1,12.725a12.573,12.573,0,0,1,10.206,0,7.357,7.357,0,0,1-10.206,0Z"/><path d="M175.4,144.117a3.168,3.168,0,1,0-3.168-3.168A3.171,3.171,0,0,0,175.4,144.117Zm0-5.279a2.112,2.112,0,1,1-2.112,2.112A2.114,2.114,0,0,1,175.4,138.838Z" transform="translate(-166.949 -133.559)"/></svg>