<svg xmlns="http://www.w3.org/2000/svg" width="25.554" height="25.756" viewBox="0 0 25.554 25.756"><defs><style>.a,.b{fill:#fff;}.a{stroke:#fff;}</style></defs><g transform="translate(0.5 0.5)"><g transform="translate(0 0)"><path class="a" d="M24.554,16.882V0H0V16.882H11.558v1.953L6.024,23.446l.921,1.105,4.613-3.844v3.847H13V20.708l4.613,3.844.921-1.105L13,18.835V16.882H24.554ZM1.439,15.443v-14H23.115v14Z"/></g><g transform="translate(4.499 4.499)"><path class="b" d="M71.364,60.048v1.191h2.214l-2.632,2.632-3.288-2.38-3.628,5.994-3.265-2.427-.71.956,4.317,3.208,3.636-6.008,3.063,2.217,3.35-3.35V64.3h1.191V60.048Z" transform="translate(-60.055 -60.048)"/></g></g></svg>