<svg xmlns="http://www.w3.org/2000/svg" width="332.471" height="89.944" viewBox="0 0 332.471 89.944"><defs><style>.a{fill:#fff;}.b{fill:#003687;}</style></defs><path class="a" d="M483.6,98.542c-1.173.726-2.234,1.4-3.294,2.066-6.868,4.411-14.239,7.036-22.447,5.472-12.564-2.345-21.665-12.9-22.782-25.909-1.619-19.543,9.381-36.462,27.919-42.828,10-3.406,19.264-2.289,27.249,5.025,4.244,3.853,5.193,10.051,2.569,14.183a9.376,9.376,0,0,1-14.853,1.508,23.191,23.191,0,0,1-1.787-2.178c-3.071-4.244-5.361-4.69-9.548-1.284-5.919,4.8-9.1,11.168-10.107,18.65-.5,3.685-.223,7.2,2.233,10.33,2.68,3.294,5.64,4.244,9.66,2.792a20.485,20.485,0,0,0,9.883-7.427c3.071-4.188,6.533-6.868,12.061-4.411.614.279,2.01-.614,2.736-1.284,4.746-4.355,10.107-5.7,14.462-2.9,2.234,1.452,3.574,1.4,5.807.056,3.406-2.066,7.036-1.787,10.5.5a3.613,3.613,0,0,0,3.127.056c5.137-2.9,8.487-2.513,13.122,1.508a2.722,2.722,0,0,0,2.289.167c2.513-1.061,5.025-2.234,7.426-3.518a3.145,3.145,0,0,0,1.452-2.178c-.447-5.193-1.173-10.33-1.564-15.523a23.725,23.725,0,0,1,.391-8.208c1.508-5.36,5.975-7.65,11.838-6.7a9.443,9.443,0,0,1,7.985,9.939c-.391,6.924-1.34,13.848-2.01,20.772-.335,3.462-.279,3.35,3.127,2.457a11.641,11.641,0,0,1,6.031-.112,8.946,8.946,0,0,0,6.03-.056c6.645-1.954,12.173,1.954,12.452,9.1.167,4.3-1.284,8.6-1.4,12.954-.223,5.807.168,11.67.223,17.477a55.107,55.107,0,0,1-.112,8.041c-.559,4.579-5.193,7.426-8.264,8.1-3.462.782-9.046-2.959-10-6.924a28.767,28.767,0,0,1-.335-8.767c.168-1.9.056-2.624-2.066-3.183-3.853-1.061-7.371-1.619-11.335-.056-1.675.67-4.188-.893-6.31-1.284a5.555,5.555,0,0,0-3.015-.056c-4.02,1.843-7.929,2.345-11.949-.168a3.4,3.4,0,0,0-2.792.335c-3.853,1.9-7.427,1.954-11.056-.67a3.207,3.207,0,0,0-3.015.056,10.641,10.641,0,0,1-7.65,1.9c-2.568-.335-5.193-.112-7.65-.726-3.462-.893-5.584-1.173-9.1-.056-6.589,2.178-11.614.279-15.188-5.7C484.325,99.491,484.046,99.156,483.6,98.542Z" transform="translate(-263.098 -35.5)"/><path class="a" d="M127.649,71.442c0-.5,2.01-9.437,4.076-13.792,7.091-14.909,24.4-23.675,39.98-20.549,6.98,1.4,13.01,6.868,14.071,12.787.893,5.137-1.005,9.046-5.472,11a9.819,9.819,0,0,1-11.726-3.239c-.223-.279-.447-.614-.67-.893-2.959-4.467-4.69-4.8-9.269-1.9C151.492,59.381,146.355,70.94,148.03,79.2c1.563,7.873,7.706,10.777,15.746,5.919.5-.279.726-1.619.558-2.345-1.731-6.645,2.122-12.731,8.99-13.066,3.8-.223,7.65.726,11.5,1.061a5.88,5.88,0,0,0,2.624-.335,7.521,7.521,0,0,1,7.929.614,3.362,3.362,0,0,0,4.244.112c4.3-2.513,7.092-2.01,11,1.005a3.1,3.1,0,0,0,2.792.223c4.914-3.239,9.66-4.076,14.685-.223.447.335,1.731.056,2.345-.335,3.629-2.68,7.315-2.9,11.447-.782a4.185,4.185,0,0,0,3.183.056c4.523-2.289,8.934-2.01,12.619,1.452,1.452,1.34,2.178,1.061,3.685,0a17.65,17.65,0,0,1,5.975-2.736c1.9-.5,2.345-1.228,2.178-3.071-.67-6.924-1.34-13.9-1.563-20.828a9.1,9.1,0,0,1,6.924-8.767c5.026-1.228,9.492.279,11.838,4.02,1.843,3.015,1.9,6.254,1.508,9.716-.949,8.878-2.122,17.757-2.4,26.635a47.645,47.645,0,0,0,2.234,14.462c2.122,7.259-.112,13.178-6.7,14.574-2.122.447-4.635-.67-6.924-.949-1.117-.168-2.345-.5-3.294-.112-3.965,1.675-7.817,2.122-11.726-.168a3.492,3.492,0,0,0-2.792.112c-3.909,2.01-7.594,2.122-11.223-.614a2.737,2.737,0,0,0-2.624,0,10.257,10.257,0,0,1-8.655,1.9c-2.01-.391-4.635.5-6.2-.447-3.629-2.178-6.7-1.954-10.33-.056-2.959,1.563-6.142.726-9.1-.726a3.572,3.572,0,0,0-2.624-.168c-6.142,2.569-11.726,2.68-16.361-2.9-.112-.112-.335-.112-.893-.279,0,1.005-.056,1.9,0,2.792.168,3.965.838,7.985.391,11.894-.558,5.249-6.812,9.772-11.391,8.934-4.467-.782-8.99-5.807-9.157-10.442a69.306,69.306,0,0,1,.5-8.32c.056-1.005.167-1.954.335-3.462a27.25,27.25,0,0,0-2.9.726c-16.752,7.2-32.889-.447-37.914-18.036a64.05,64.05,0,0,1-1.228-6.812C127.035,78.478,127.594,72.5,127.649,71.442Z" transform="translate(-127.206 -35.929)"/><path class="b" d="M127.649,71.442c0-.5,2.01-9.437,4.076-13.792,7.091-14.909,24.4-23.675,39.98-20.549,6.98,1.4,13.01,6.868,14.071,12.787.893,5.137-1.005,9.046-5.472,11a9.819,9.819,0,0,1-11.726-3.239c-.223-.279-.447-.614-.67-.893-2.959-4.467-4.69-4.8-9.269-1.9C151.492,59.381,146.355,70.94,148.03,79.2c1.563,7.873,7.706,10.777,15.746,5.919.5-.279.726-1.619.558-2.345-1.731-6.645,2.122-12.731,8.99-13.066,3.8-.223,7.65.726,11.5,1.061a5.88,5.88,0,0,0,2.624-.335,7.521,7.521,0,0,1,7.929.614,3.362,3.362,0,0,0,4.244.112c4.3-2.513,7.092-2.01,11,1.005a3.1,3.1,0,0,0,2.792.223c4.914-3.239,9.66-4.076,14.685-.223.447.335,1.731.056,2.345-.335,3.629-2.68,7.315-2.9,11.447-.782a4.185,4.185,0,0,0,3.183.056c4.523-2.289,8.934-2.01,12.619,1.452,1.452,1.34,2.178,1.061,3.685,0a17.65,17.65,0,0,1,5.975-2.736c1.9-.5,2.345-1.228,2.178-3.071-.67-6.924-1.34-13.9-1.563-20.828a9.1,9.1,0,0,1,6.924-8.767c5.026-1.228,9.492.279,11.838,4.02,1.843,3.015,1.9,6.254,1.508,9.716-.949,8.878-2.122,17.757-2.4,26.635a47.645,47.645,0,0,0,2.234,14.462c2.122,7.259-.112,13.178-6.7,14.574-2.122.447-4.635-.67-6.924-.949-1.117-.168-2.345-.5-3.294-.112-3.965,1.675-7.817,2.122-11.726-.168a3.492,3.492,0,0,0-2.792.112c-3.909,2.01-7.594,2.122-11.223-.614a2.737,2.737,0,0,0-2.624,0,10.257,10.257,0,0,1-8.655,1.9c-2.01-.391-4.635.5-6.2-.447-3.629-2.178-6.7-1.954-10.33-.056-2.959,1.563-6.142.726-9.1-.726a3.572,3.572,0,0,0-2.624-.168c-6.142,2.569-11.726,2.68-16.361-2.9-.112-.112-.335-.112-.893-.279,0,1.005-.056,1.9,0,2.792.168,3.965.838,7.985.391,11.894-.558,5.249-6.812,9.772-11.391,8.934-4.467-.782-8.99-5.807-9.157-10.442a69.306,69.306,0,0,1,.5-8.32c.056-1.005.167-1.954.335-3.462a27.25,27.25,0,0,0-2.9.726c-16.752,7.2-32.889-.447-37.914-18.036a64.05,64.05,0,0,1-1.228-6.812C127.035,78.478,127.594,72.5,127.649,71.442Zm116.143,28.924c5.193,5.64,6.645,5.863,13.4,2.513a2.491,2.491,0,0,1,2.178.168c3.853,3.071,7.873,2.457,11.726.279a2.734,2.734,0,0,1,3.629.223,7.124,7.124,0,0,0,8.6.391,7.24,7.24,0,0,0,3.685-7.538c-.168-1.619-.782-3.239-1.117-4.858-.726-3.518-1.954-7.091-1.954-10.609,0-7.259.67-14.462,1.228-21.721.335-3.965,1.284-7.929,1.452-11.894a8.517,8.517,0,0,0-8.32-9.046,8.87,8.87,0,0,0-9.1,8.711,35.086,35.086,0,0,0,.223,4.188c.614,5.919,1.173,11.838,1.843,17.757.223,1.843-.279,2.457-2.234,2.4-3.63-.112-6.366,1.675-8.6,4.411-.447.614-.893,1.228-1.452,1.954-3.909-7.036-8.041-7.985-14.853-3.853a2.909,2.909,0,0,1-2.457-.5c-4.076-3.183-8.99-2.457-11.782,1.843a9.97,9.97,0,0,0-.558,1.452c-2.68-3.685-5.64-6.031-9.437-4.97-3.239.893-6.142,2.959-9.213,4.523-2.4-5.081-5.64-6.254-10.721-3.183a4.354,4.354,0,0,1-5.36-.168,6.12,6.12,0,0,0-7.538-.223,2.98,2.98,0,0,1-2.457.279c-3.741-2.234-7.762-1.954-11.67-1.4-6.254.893-8.99,6.254-6.477,12.229a2.357,2.357,0,0,1-.335,2.066c-4.076,2.736-8.487,4.746-13.345,2.792-4.69-1.843-6.421-6.031-6.812-10.721a26.3,26.3,0,0,1,5.528-18.315,29.652,29.652,0,0,1,8.041-7.091c3.909-2.4,6.2-1.508,8.878,2.178.838,1.117,1.563,2.569,2.68,3.127,1.954,1.005,4.3,2.178,6.366,1.9,6.477-.838,8.934-8.041,4.8-13.569-4.02-5.361-9.6-7.817-16.193-7.929C141.33,37.548,122.4,63.848,130.5,87.524c4.69,13.68,17.087,20.381,30.934,16.472,3.239-.893,6.254-2.569,9.548-3.965,0,.67.056,1.228,0,1.731a128.621,128.621,0,0,0-1.005,13.066c.056,4.914,3.853,8.264,8.655,8.432a8.213,8.213,0,0,0,8.655-7.762,59.308,59.308,0,0,0-.335-8.878c-.335-5.249-.782-10.442-1.173-15.691,2.9-.279,3.629.558,3.35,3.015-.838,7.762,5.3,12.787,12.787,10.777,1.229-.335,2.4-1.005,3.685-1.284a5,5,0,0,1,3.015.168c4.244,2.457,8.208,1.787,12.061-.838.726-.5,1.452-1.061,1.9-1.4,2.289,1.284,4.132,2.736,6.254,3.462,1.563.5,3.574-.335,5.193.056C238.432,105.839,241.5,104.387,243.793,100.366Z" transform="translate(-127.206 -35.929)"/><path class="b" d="M483.6,98.542c-1.173.726-2.234,1.4-3.294,2.066-6.868,4.411-14.239,7.036-22.447,5.472-12.564-2.345-21.665-12.9-22.782-25.909-1.619-19.543,9.381-36.462,27.919-42.828,10-3.406,19.264-2.289,27.249,5.025,4.244,3.853,5.193,10.051,2.569,14.183a9.376,9.376,0,0,1-14.853,1.508,23.191,23.191,0,0,1-1.787-2.178c-3.071-4.244-5.361-4.69-9.548-1.284-5.919,4.8-9.1,11.168-10.107,18.65-.5,3.685-.223,7.2,2.233,10.33,2.68,3.294,5.64,4.244,9.66,2.792a20.485,20.485,0,0,0,9.883-7.427c3.071-4.188,6.533-6.868,12.061-4.411.614.279,2.01-.614,2.736-1.284,4.746-4.355,10.107-5.7,14.462-2.9,2.234,1.452,3.574,1.4,5.807.056,3.406-2.066,7.036-1.787,10.5.5a3.613,3.613,0,0,0,3.127.056c5.137-2.9,8.487-2.513,13.122,1.508a2.722,2.722,0,0,0,2.289.167c2.513-1.061,5.025-2.234,7.426-3.518a3.145,3.145,0,0,0,1.452-2.178c-.447-5.193-1.173-10.33-1.564-15.523a23.725,23.725,0,0,1,.391-8.208c1.508-5.36,5.975-7.65,11.838-6.7a9.443,9.443,0,0,1,7.985,9.939c-.391,6.924-1.34,13.848-2.01,20.772-.335,3.462-.279,3.35,3.127,2.457a11.641,11.641,0,0,1,6.031-.112,8.946,8.946,0,0,0,6.03-.056c6.645-1.954,12.173,1.954,12.452,9.1.167,4.3-1.284,8.6-1.4,12.954-.223,5.807.168,11.67.223,17.477a55.107,55.107,0,0,1-.112,8.041c-.559,4.579-5.193,7.426-8.264,8.1-3.462.782-9.046-2.959-10-6.924a28.767,28.767,0,0,1-.335-8.767c.168-1.9.056-2.624-2.066-3.183-3.853-1.061-7.371-1.619-11.335-.056-1.675.67-4.188-.893-6.31-1.284a5.555,5.555,0,0,0-3.015-.056c-4.02,1.843-7.929,2.345-11.949-.168a3.4,3.4,0,0,0-2.792.335c-3.853,1.9-7.427,1.954-11.056-.67a3.207,3.207,0,0,0-3.015.056,10.641,10.641,0,0,1-7.65,1.9c-2.568-.335-5.193-.112-7.65-.726-3.462-.893-5.584-1.173-9.1-.056-6.589,2.178-11.614.279-15.188-5.7C484.325,99.491,484.046,99.156,483.6,98.542Zm27.026-23.452c-6.421-6.086-11.391-5.863-17.477.838-.112.112-.223.391-.335.447-.782.168-1.731.558-2.345.279-4.523-2.066-6.924-1.284-10.162,2.457a36.66,36.66,0,0,1-8.655,7.706c-8.152,4.858-16.193.279-16.807-9.269a27.061,27.061,0,0,1,5.584-18.594,25.7,25.7,0,0,1,7.65-7.091c4.3-2.345,7.147-1.563,9.213,2.178a11.882,11.882,0,0,0,5.751,4.8c3.294,1.284,6.757-.5,8.6-3.518,1.731-2.792,1.34-7.147-1.173-10.163-5.193-6.31-12.229-8.543-19.99-7.594-22.056,2.624-38.863,24.513-32.442,48.189,3.462,12.675,15.411,20.6,27.7,18.818,6.645-.949,12.284-4.132,17.533-8.152.559-.391,1.173-.782,2.066-1.34q.67,7.789,7.706,9.381c4.579,1.061,8.264-1.061,11.5-3.909,7.538,6.254,15.188,5.975,21.163-.614.5.67.949,1.34,1.508,1.954,2.066,2.4,4.914,3.853,7.706,2.513a10.126,10.126,0,0,1,10,0c3.35,1.619,6.812-.5,9.883-2.624,3.8,3.685,7.817,4.02,12.061.949a2.035,2.035,0,0,1,1.508-.223c3.071.949,6.086,1.954,9.548,3.015,0,.056-.056.893-.167,1.675a45.467,45.467,0,0,0-.893,7.147,8.186,8.186,0,0,0,7.929,8.432c4.523.167,7.873-2.959,8.32-7.985a20.309,20.309,0,0,0-.279-5.807,58.864,58.864,0,0,1,.726-23.787,19.92,19.92,0,0,0,.279-7.706c-.949-5.863-6.868-8.432-11.893-5.416-1.284.726-2.122.949-3.462.112-3.574-2.234-7.426-1.619-10.442,1.4l-2.345,2.345c.5-6.366.837-11.782,1.34-17.254.335-3.965,1.117-7.929,1.228-11.894a8.127,8.127,0,0,0-6.31-8.487c-3.574-1.005-7.762.279-9.325,3.741a17.088,17.088,0,0,0-1.284,8.041c.335,6.142,1.173,12.229,1.9,18.315.223,1.954-.279,2.4-2.289,2.68a18.255,18.255,0,0,0-6.589,2.68c-1.4.838-2.345,2.513-3.63,3.965C537.427,69.9,533.63,69.282,525.2,74.7,520.285,69.226,515.036,69.561,510.625,75.089Z" transform="translate(-263.098 -35.5)"/><path class="b" d="M271.954,98.345c-2.792,2.4-5.081,4.858-7.873,6.533-3.127,1.843-5.137.726-7.817-3.35a64.223,64.223,0,0,1-6.756,3.462c-5.36,2.066-8.99-.726-7.706-6.31.782-3.294,3.015-6.31,4.635-9.381a22.127,22.127,0,0,1,1.787-2.624,44.569,44.569,0,0,0-6.254.112c-.558.056-1.117,1.34-1.34,2.122-.5,1.843-1.508,3.294-3.406,2.959-2.178-.447-2.289-2.457-2.01-4.3a29.41,29.41,0,0,1,.838-2.959c1.005-3.35,1.843-3.685,4.858-1.9a8.012,8.012,0,0,0,8.934-.112c.949-.558,2.289-.447,3.518-.614a13.135,13.135,0,0,1-.335,3.35c-1.4,3.518-3.071,6.98-4.355,10.5-.782,2.066-1.508,4.523,1.228,5.807,1.954.949,5.863-1.563,6.421-4.132a24.508,24.508,0,0,1,6.645-12.675,15.172,15.172,0,0,1,4.8-3.127,3.172,3.172,0,0,1,4.411,1.787c.335,1.061-.559,2.9-1.4,3.964-.837,1.005-2.457,1.284-3.518,2.178a28.2,28.2,0,0,0-4.97,5.025c-1.228,1.843,0,3.629,1.564,4.8,1.675,1.173,3.294.5,4.411-.949,1-1.284,1.508-2.959,2.513-4.3a19.052,19.052,0,0,1,3.183-2.736,14.142,14.142,0,0,1,2.457,3.071c.838,1.843,1.117,3.909,1.9,5.807.279.67,1.34,1.061,2.066,1.563.391-.67,1.117-1.284,1.173-1.954.167-3.853.223-7.706.279-11.559,0-1.452-.67-3.127-.167-4.355a4.351,4.351,0,0,1,3.071-2.4c.67-.112,2.066,1.619,2.289,2.736.279,1.452-.391,3.071-.5,4.635a6.64,6.64,0,0,0,.5,2.01c.67-.223,1.508-.223,1.954-.67A39.279,39.279,0,0,0,292,86.674a24.781,24.781,0,0,1,2.569-3.294c1.675-1.508,3.629-2.792,6.03-1.228,2.4,1.508,1.4,3.518.782,5.472-.949,3.071-2.066,6.142-2.736,9.325a4.05,4.05,0,0,0,1.4,3.462c.838.447,2.848-.223,3.574-1.061a39.566,39.566,0,0,0,4.69-7.036c1.229-2.289,1.9-4.858,3.127-7.091a8.5,8.5,0,0,1,2.848-2.959c2.01-1.4,4.355-.893,5.361.893,1.117,2.01.335,4.244-2.122,5.193a10.571,10.571,0,0,0-6.03,5.472c-.949,2.066-.726,3.8,1.005,5.249,1.675,1.4,3.294.838,4.8-.335,3.574-2.68,6.366-6.086,6.366-10.665,0-8.822-.5-17.645-.838-26.412-.112-2.513-.614-4.97-.782-7.482-.279-3.685,1.284-5.751,4.132-5.584,2.68.112,3.965,2.066,3.518,5.807-.614,5.64-1.675,11.224-1.954,16.919-.335,7.315-.112,14.63.112,21.944.056,1.787,1.005,3.574,1.508,5.36a29.327,29.327,0,0,1,.838,2.959c.335,1.9-.056,3.629-2.233,4.188-2.066.5-3.406-.782-4.132-2.569a26.983,26.983,0,0,1-.949-3.63c-2.848,2.122-5.249,4.746-8.208,5.919-4.411,1.731-5.807-2.122-7.371-6.2a50.634,50.634,0,0,1-3.965,4.523c-3.909,3.462-7.259,2.345-7.985-2.848-.391-2.9-.056-5.919-.112-8.822a6.028,6.028,0,0,0-.558-1.954,9.263,9.263,0,0,0-1.731.67,35.118,35.118,0,0,0-4.858,3.741,5.4,5.4,0,0,0-1.284,3.183c-.056,1.731.5,3.518.391,5.249-.168,2.569-2.01,3.406-4.355,2.345-.726-.335-1.954-.67-2.457-.335-2.736,1.9-4.411.223-5.807-1.731A43.572,43.572,0,0,1,271.954,98.345Z" transform="translate(-174.855 -41.278)"/><path class="b" d="M180.022,88.313a11.148,11.148,0,0,0-1.731-.335c-1.843-.168-3.239-1.173-2.959-2.959.223-1.284,1.452-3.239,2.457-3.406a25.647,25.647,0,0,1,8.264,0c.838.112,2.178,2.234,1.954,2.959-3.574,9.939-1.4,19.878-.5,29.818a37.367,37.367,0,0,1,.223,5.584,3.968,3.968,0,0,1-7.873.447,14.83,14.83,0,0,1,0-3.853c.558-6.086,1.228-12.229,1.787-18.315.112-.893,0-1.731,0-3.462-1.4,1.061-2.178,1.619-2.848,2.234-5.7,4.97-12.005,8.432-19.767,8.543-7.985.112-13.736-3.629-17.366-10.553-9.1-17.533,2.122-41.432,21.442-45.843,4.691-1.061,9.381-1.452,14.015.168,3.127,1.061,5.7,2.848,6.98,5.975.67,1.619.949,3.294-.838,4.467-1.843,1.228-3.35.447-4.69-1.005a11.971,11.971,0,0,1-1.005-1.34c-4.523-6.366-8.543-7.371-15.579-3.909-9.883,4.858-17.757,21-15.467,31.772,2.624,12.284,12.452,17.142,23.843,11.5,3.239-1.619,5.975-4.355,8.878-6.645C179.575,89.82,179.631,89.15,180.022,88.313Z" transform="translate(-132.172 -41.129)"/><path class="b" d="M626.533,98.883a20.72,20.72,0,0,1-1.843,2.513,18.435,18.435,0,0,1-4.355,3.741c-3.015,1.508-5.64.391-7.2-2.68a11.946,11.946,0,0,0-2.066-3.071,6.325,6.325,0,0,1-.726,1.787c-.726,1.061-1.4,2.4-2.4,3.015-1.34.782-3.238,1.619-4.467,1.228-1.061-.335-1.731-2.345-2.289-3.741a21.193,21.193,0,0,1-.447-3.741c-1.117,1.173-1.675,1.9-2.345,2.513-1.787,1.563-3.406,3.462-5.417,4.635-3.294,1.843-5.919.614-7.259-2.959-.279-.67-.559-1.284-.838-1.9-.335-.223-.726-.447-1.061-.67-1.172,1.508-2.122,3.294-3.573,4.523-3.685,3.127-6.366,2.345-7.427-2.345-.67-2.848-.279-5.919-.447-8.822a15.538,15.538,0,0,0-.614-2.569c-.782.391-1.564.726-2.345,1.117-.223.112-.391.391-.67.5-4.077,2.066-5.752,4.97-4.635,9.828.838,3.518-1.061,4.635-4.523,3.406a3.03,3.03,0,0,0-1.563-.112c-3.629,1.005-5.081.447-6.924-2.848-.67-1.173-1.173-2.457-1.954-4.188a22.3,22.3,0,0,1-2.178,2.289c-2.01,1.731-3.853,3.909-6.142,4.97-4.411,2.01-8.153-1.173-7.315-5.919,1.005-5.472,2.848-10.665,6.812-14.685a13.922,13.922,0,0,1,4.3-2.9c1.954-.893,3.741,0,4.8,1.731,1.173,1.9-.223,3.183-1.619,4.188-1.172.893-2.68,1.34-3.8,2.289a21.743,21.743,0,0,0-4.746,4.858c-1.229,1.843-.056,3.63,1.619,4.8s3.294.614,4.467-.838c1.005-1.284,1.508-2.959,2.569-4.244a21.445,21.445,0,0,1,3.127-2.792,16.024,16.024,0,0,1,2.513,3.015c.782,1.731,1,3.8,1.843,5.528.391.838,1.619,1.228,2.457,1.843a17.837,17.837,0,0,0,.949-2.4,29.528,29.528,0,0,0-.111-13.792,4.234,4.234,0,0,1,.447-3.127,3.814,3.814,0,0,1,3.183-.893,3.129,3.129,0,0,1,1.787,2.345c.112,1.619-.5,3.294-.559,4.914a6.7,6.7,0,0,0,.615,2.234c.726-.279,1.675-.279,2.177-.782,1.787-1.843,3.462-3.909,5.193-5.807a9.871,9.871,0,0,1,2.736-2.345c1-.447,2.513-.782,3.294-.279a3.682,3.682,0,0,1,1.4,2.959,54.854,54.854,0,0,1-1.731,6.421,41.306,41.306,0,0,0-1.34,6.756,3.5,3.5,0,0,0,1.508,2.68,2.945,2.945,0,0,0,2.681-.614,67.959,67.959,0,0,0,5.416-7.873c1.228-2.122,1.843-4.635,2.959-6.868a7.075,7.075,0,0,1,2.178-2.457c2.68-2.066,5.416-1.954,6.645.056,1.173,1.954-.168,4.523-2.68,6.254a23.656,23.656,0,0,0-5.7,5.36c-.614.838-.056,3.127.726,4.132,1.675,2.066,3.686.949,5.417-.391,4.969-3.8,6.756-9.213,6.533-15.021-.391-9.381-1.4-18.706-2.122-28.087a23.584,23.584,0,0,1-.223-2.792c.168-2.513,1.787-4.076,4.132-3.965,2.569.168,3.685,1.787,3.518,4.132-.279,4.188-1.061,8.32-1.34,12.452-.5,7.426-.949,14.853-1.061,22.28a49.134,49.134,0,0,0,1.228,9.381c.167.782.837,1.9,1.452,2.066s1.787-.614,2.122-1.284a25.967,25.967,0,0,0,2.066-5.36c.726-2.457,1.005-5.081,1.843-7.482a5.557,5.557,0,0,1,2.792-2.848,4.081,4.081,0,0,1,3.518.447,4.013,4.013,0,0,1,.782,3.406c-.279,1.284-1.452,2.345-2.066,3.574a40.1,40.1,0,0,0-3.015,6.477,3.849,3.849,0,0,0,1.843,4.8,4.477,4.477,0,0,0,5.639-.726c3.127-2.848,4.746-6.366,3.909-10.721-.279-1.563-.782-3.239-.335-4.635a4.854,4.854,0,0,1,2.959-2.959c1.843-.391,3.183,1.005,3.183,3.015a33,33,0,0,1-.5,6.645,55.551,55.551,0,0,0-.447,24.625,11.331,11.331,0,0,1-.056,5.472c-.335,1.117-2.066,2.569-3.071,2.457-1.173-.112-2.624-1.508-3.239-2.736-.5-1.005-.167-2.513,0-3.8.67-5.137,1.452-10.33,2.122-15.467a19.748,19.748,0,0,0,0-2.569C627.091,99.05,626.812,98.994,626.533,98.883Z" transform="translate(-306.584 -41.369)"/><path class="b" d="M446.58,81.084c-.056-19.376,15.411-31.884,29.259-33.391,4.858-.5,9.548.335,13.513,3.35A11.525,11.525,0,0,1,492.7,55.9a3.575,3.575,0,0,1-1.117,3.239c-.838.558-2.513.335-3.574-.168a6.294,6.294,0,0,1-2.178-2.457c-3.574-5.528-8.6-6.98-14.518-3.8-7.482,3.965-11.838,10.553-14.518,18.371-1.842,5.416-2.792,10.944-.893,16.416,4.132,12.061,16.3,14.965,26.858,6.533,2.289-1.843,4.132-4.244,6.2-6.421,1.061-1.117,1.954-2.9,3.853-1.675,1.787,1.173.614,2.68,0,3.965-4.635,9.1-18.538,16.64-28.589,15.132A18.671,18.671,0,0,1,449.149,93.48c-1.675-3.853-2.01-6.254-2.569-10.721A16.15,16.15,0,0,1,446.58,81.084Z" transform="translate(-268.237 -40.824)"/></svg>