<?xml version="1.0" encoding="utf-8"?>
<!-- Generator: Adobe Illustrator 21.1.0, SVG Export Plug-In . SVG Version: 6.00 Build 0)  -->
<svg version="1.1"
	 id="svg10306" xmlns:cc="http://creativecommons.org/ns#" xmlns:dc="http://purl.org/dc/elements/1.1/" xmlns:rdf="http://www.w3.org/1999/02/22-rdf-syntax-ns#" xmlns:svg="http://www.w3.org/2000/svg"
	 xmlns="http://www.w3.org/2000/svg" xmlns:xlink="http://www.w3.org/1999/xlink" x="0px" y="0px" viewBox="0 0 500 162.8"
	 style="enable-background:new 0 0 500 162.8;" xml:space="preserve">
<style type="text/css">
	.st0{clip-path:url(#SVGID_2_);}
	.st1{fill:#FFFFFF;}
</style>
<g id="layer1" transform="translate(-333.70157,-536.42431)">
	<g id="g10267" transform="matrix(4.9846856,0,0,-4.9846856,-1470.1185,1039.6264)">
		<g>
			<defs>
				<path id="SVGID_1_" d="M413.7,90.4c-0.1-4.5,4-7,7.1-8.5c3.1-1.5,4.2-2.5,4.2-3.9c0-2.1-2.5-3-4.8-3.1c-4.1-0.1-6.4,1.1-8.3,2
					l-1.5-6.8c1.9-0.9,5.4-1.6,9-1.7c8.5,0,14,4.2,14.1,10.7c0,8.2-11.4,8.7-11.3,12.4c0,1.1,1.1,2.3,3.4,2.6c1.2,0.2,4.3,0.3,8-1.4
					l1.4,6.6c-1.9,0.7-4.4,1.4-7.6,1.4C419.4,100.7,413.8,96.5,413.7,90.4 M448.6,100.2c-1.5,0-2.9-0.9-3.4-2.3L433,69h8.5l1.7,4.7
					h10.4l1-4.7h7.5l-6.5,31.2H448.6 M449.8,91.7l2.4-11.7h-6.7L449.8,91.7 M403.5,100.2L396.8,69h8.1l6.7,31.2H403.5 M391.5,100.2
					l-8.4-21.2L379.7,97c-0.4,2-2,3.2-3.7,3.2h-13.7l-0.2-0.9c2.8-0.6,6-1.6,8-2.7c1.2-0.6,1.5-1.2,1.9-2.7l6.4-24.9h8.5l13.1,31.2
					L391.5,100.2"/>
			</defs>
			<use xlink:href="#SVGID_1_"  style="overflow:visible;fill:#FFFFFF;"/>
			<clipPath id="SVGID_2_">
				<use xlink:href="#SVGID_1_"  style="overflow:visible;"/>
			</clipPath>
			<g id="g10269" class="st0">
				<g id="g10275" transform="translate(351.611,96.896)">
					<path id="path10283" class="st1" d="M0,0l98.4,36.3l22.4-60.8L22.4-60.8"/>
				</g>
			</g>
		</g>
	</g>
</g>
</svg>
