<svg xmlns="http://www.w3.org/2000/svg" width="42.051" height="29" viewBox="0 0 42.051 29"><defs><style>.a{fill:#fff;}.b{fill:#f79f1a;}.c{fill:#055cbf;}.d{fill:#202121;opacity:0.15;}</style></defs><g transform="translate(0 -79.451)"><path class="a" d="M42.051,105.965a2.486,2.486,0,0,1-2.486,2.486H2.486A2.486,2.486,0,0,1,0,105.965V81.937a2.486,2.486,0,0,1,2.486-2.486H39.565a2.486,2.486,0,0,1,2.486,2.486v24.028Z" transform="translate(0 0)"/><path class="b" d="M37.33,195.342l-.987-4.737a1.178,1.178,0,0,0-1.274-.873H30.542l-.04.216C34.028,190.8,36.361,192.865,37.33,195.342Z" transform="translate(-27.997 -101.224)"/><g transform="translate(0 79.451)"><path class="c" d="M188.251,190.892h-2.925l-1.827,10.72h2.92Z" transform="translate(-168.428 -181.739)"/><path class="c" d="M71.545,201.683l4.6-10.7h-3.1l-2.862,7.312-.305-1.1a11.438,11.438,0,0,0-4.046-4.443l2.616,8.941Z" transform="translate(-60.429 -181.821)"/><path class="c" d="M249.7,196.058c.011-1.217-.771-2.145-2.455-2.912-1.023-.5-1.647-.825-1.64-1.328,0-.444.528-.921,1.673-.921a5.4,5.4,0,0,1,2.187.411l.264.121.4-2.322a7.576,7.576,0,0,0-2.62-.448c-2.887,0-4.92,1.453-4.938,3.537-.018,1.541,1.453,2.4,2.561,2.913,1.137.523,1.519.858,1.512,1.328-.007.718-.906,1.046-1.746,1.046a6.131,6.131,0,0,1-2.752-.562l-.374-.172-.41,2.4a9.219,9.219,0,0,0,3.254.569C247.68,199.721,249.676,198.286,249.7,196.058Z" transform="translate(-221.533 -179.69)"/><path class="c" d="M344.068,200.129l3.742,0c.088.373.356,1.607.356,1.607h2.711l-2.366-10.713h-2.256a1.454,1.454,0,0,0-1.53.888l-4.34,9.825h3.071S343.955,200.419,344.068,200.129Zm2-5.191c-.014.029.242-.62.389-1.024l.2.924s.558,2.561.675,3.1h-2.425C345.151,197.319,346.071,194.938,346.071,194.938Z" transform="translate(-312.429 -181.863)"/><path class="c" d="M39.565,79.451H2.486A2.486,2.486,0,0,0,0,81.937v2.58H42.051v-2.58A2.486,2.486,0,0,0,39.565,79.451Z" transform="translate(0 -79.451)"/></g><path class="b" d="M39.565,375.937H2.486A2.486,2.486,0,0,1,0,373.451v-2.58H42.051v2.58A2.486,2.486,0,0,1,39.565,375.937Z" transform="translate(0 -267.486)"/><path class="d" d="M1.767,105.965V81.937a2.486,2.486,0,0,1,2.486-2.486H2.486A2.486,2.486,0,0,0,0,81.937v24.028a2.486,2.486,0,0,0,2.486,2.486H4.253A2.486,2.486,0,0,1,1.767,105.965Z" transform="translate(0 0)"/></g></svg>